<?xml version="1.0" encoding="UTF-8" standalone="no"?><!-- Created with Inkscape (http://www.inkscape.org/) --><svg xmlns="http://www.w3.org/2000/svg" xmlns:xlink="http://www.w3.org/1999/xlink" width="798" height="337.6"><text x="65.821777" y="270.45883" id="O" style="font-size:45px;font-family:Arial">O</text><use transform="translate(252.4299,-218.91371)" xlink:href="#O" /><path d="M 209.85351,119.05666 L 263.55251,149.95377 M 209.85351,243.84499 L 263.55251,212.64791 M 146.55469,217.74743 L 209.55352,254.34401 L 272.85234,217.74743 L 272.85234,144.85425 M 146.55469,217.74743 L 146.55469,144.85425 L 209.55352,108.55764 L 272.85234,144.85425 M 155.55452,212.34793 L 155.55452,150.25374 M 331.35125,54.02652 L 331.35125,110.82097 M 340.35109,54.02652 L 340.35109,110.82097 M 457.6489,54.02652 L 457.6489,110.82097 M 466.64874,54.02652 L 466.64874,110.82097 M 525.44764,144.85425 L 462.14882,108.55764 L 399.14999,144.85425 L 335.85117,108.55764 L 272.85234,144.85425 M 588.14648,119.05666 L 534.44748,149.95377 M 588.14648,243.84499 L 534.44748,212.64791 M 651.4453,217.74743 L 588.44647,254.34401 L 525.44764,217.74743 L 525.44764,144.85425 M 651.4453,217.74743 L 651.4453,144.85425 L 588.44647,108.55764 L 525.44764,144.85425 M 642.44547,212.34793 L 642.44547,150.25374 M 146.55469,217.74743 L 100.95554,244.14496 M 65.85619,244.14496 L 20.25704,217.74743 M 651.4453,217.74743 L 714.74412,254.34401 M 714.74412,254.34401 L 777.74295,217.74743 M 714.74412,254.34401 L 678.1448,317.33812 M 714.74412,254.34401 L 751.04345,317.33812" style="fill:none;stroke:#000;stroke-width:3" /><use transform="translate(378.58669,-218.91371)" xlink:href="#O" /></svg>
