<?xml version="1.0" encoding="utf-8"?>
<svg viewBox="0 23.425 501.212 441.842" width="501.212px" height="441.842px" style="enable-background:new 0 0 500 500;" xmlns="http://www.w3.org/2000/svg">
  <g id="BACKGROUND" style="" transform="matrix(0.9999999999999999, 0, 0, 0.9999999999999999, -7.105427357601002e-15, 2.0193911501493034)">
    <rect style="fill: rgb(252, 246, 240);" width="500" height="500" y="-1.616"/>
  </g>
  <g id="OBJECTS" transform="matrix(0.9999999999999999, 0, 0, 0.9999999999999999, -7.105427357601002e-15, 0)">
    <path style="fill:#EFE0D3;" d="M129.559,120.109C55.42,176.237,26.422,275.196,62.717,360.808c0.79,1.863,1.611,3.729,2.463,5.597&#10;&#9;&#9;c40.931,89.672,171.045,125.688,198.874,31.792s121.997-102.539,119.941-192.31c-2.056-89.771-108.618-142.226-184.766-122.091&#10;&#9;&#9;C174.266,90.396,150.384,104.343,129.559,120.109z"/>
    <g>
      <path style="fill:#C1774D;" d="M293.582,188.169c0,0-18.647,11.659-26.105,19.864c-7.459,8.204,18.801,13.643,18.801,13.643&#10;&#9;&#9;&#9;L293.582,188.169z"/>
      <g>
        <defs>
          <path id="SVGID_1_" d="M351.013,131.955c0,0-38.039-9.696-56.685,42.514c-18.647,52.21-29.835,102.183,20.138,98.454&#10;&#9;&#9;&#9;&#9;&#9;c49.973-3.729,82.791-37.793,90.249-72.599C412.174,165.519,398.748,138.668,351.013,131.955z"/>
        </defs>
        <path d="M351.013,131.955c0,0-38.039-9.696-56.685,42.514c-18.647,52.21-29.835,102.183,20.138,98.454&#10;&#9;&#9;&#9;&#9;&#9;c49.973-3.729,82.791-37.793,90.249-72.599C412.174,165.519,398.748,138.668,351.013,131.955z" style="overflow: visible; fill: rgb(222, 158, 120);"/>
        <clipPath id="SVGID_00000083777936753868986030000006164252094113871780_">
          <path d="M351.013,131.955c0,0-38.039-9.696-56.685,42.514c-18.647,52.21-29.835,102.183,20.138,98.454&#10;&#9;&#9;&#9;&#9;&#9;c49.973-3.729,82.791-37.793,90.249-72.599C412.174,165.519,398.748,138.668,351.013,131.955z" style="overflow: visible;"/>
        </clipPath>
        <path style="clip-path:url(#SVGID_00000083777936753868986030000006164252094113871780_);fill:#C1774D;" d="M335.393,256.597&#10;&#9;&#9;&#9;&#9;c0,0-23.865,19.713-44.2,12.415c17.276,16.841,54.053,1.131,54.053,1.131L335.393,256.597z"/>
        <circle style="clip-path:url(#SVGID_00000083777936753868986030000006164252094113871780_);fill:#DB876A;" cx="311.041" cy="225.474" r="15.494"/>
      </g>
      <path style="fill:#DE9E78;" d="M457.382,353.06c-8.114-31.702-18.052-37.789-37.194-46.278c-0.102-0.045-0.204-0.09-0.305-0.134&#10;&#9;&#9;&#9;c-1.793-0.787-17.052-4.646-17.507-6.078c-0.56-1.765,0.572,1.746,0,0l-19.506-87.768l-62.769,39.57l8.764,54.861&#10;&#9;&#9;&#9;c0,0-47.051,2.191-55.729,40.348c-7.002,30.787-13.452,108.824-13.452,108.824h178.288c0,0,40.752,0,40.752,0L457.382,353.06z"/>
      <path style="fill:#4D382D;" d="M417.399,180.908c2.963-25.373-11.831-49.621-35.887-58.215c-0.204-0.073-0.409-0.145-0.614-0.217&#10;&#9;&#9;&#9;c-20.519-7.182-23.597-24.623-53.35-23.597c-29.753,1.026-36.935,43.894-16.928,57.856c20.006,13.962,44.629,14.987,44.629,14.987&#10;&#9;&#9;&#9;s-23.092,38.796-15.902,49.953c6.156,9.553,19.169-16.837,19.209-11.992c0.201,24.197-0.96,49.928,19.264,45.655&#10;&#9;&#9;&#9;C401.715,250.291,413.727,212.352,417.399,180.908z"/>
      <path style="fill:#DE9E78;" d="M345.247,222.985c0,0,10.894-23.508,23.744-16.847c14.473,7.502,4.726,41.872-17.332,40.333"/>
      <line style="fill:none;stroke:#C1774D;stroke-width:1.5;stroke-linecap:round;stroke-linejoin:round;stroke-miterlimit:10;" x1="334.293" y1="305.912" x2="355.259" y2="300.81"/>
      <path style="fill:none;stroke:#C1774D;stroke-width:1.5;stroke-linecap:round;stroke-linejoin:round;stroke-miterlimit:10;" d="&#10;&#9;&#9;&#9;M368.991,216.237c0,0-8.226-3.821-13.473,5.439c0,0,9.234,4.06,2.99,13.817"/>
      <line style="fill:none;stroke:#C1774D;stroke-width:1.5;stroke-linecap:round;stroke-linejoin:round;stroke-miterlimit:10;" x1="327.708" y1="383.202" x2="321.657" y2="454.131"/>
      <path style="fill:#D37A5B;" d="M304.375,336.327c0,0-0.555-0.171-1.248-1.002c-0.693-0.832-3.189-1.599-4.436,1.002&#10;&#9;&#9;&#9;c-1.248,2.602-0.069,2.741-0.416,5.444c-0.299,2.332,1.517,3.581,3,2.856c0.523-0.255,1.071-0.447,1.644-0.549&#10;&#9;&#9;&#9;c2.154-0.383,2.944-2.572,3.188-4.393C306.385,337.612,306.454,336.636,304.375,336.327z"/>
      <path style="fill:#D37A5B;" d="M386.029,283.148c0,0-0.277-0.085-0.624-0.501c-0.347-0.416-1.594-0.8-2.218,0.501&#10;&#9;&#9;&#9;c-0.624,1.301-0.035,1.37-0.208,2.722c-0.149,1.166,0.758,1.79,1.5,1.428c0.261-0.128,0.536-0.224,0.822-0.275&#10;&#9;&#9;&#9;c1.077-0.191,1.472-1.286,1.594-2.197C387.034,283.791,387.068,283.303,386.029,283.148z"/>
      <path style="fill:#D37A5B;" d="M406.034,401.121c0,0-0.342-0.105-0.77-0.618c-0.427-0.513-1.966-0.987-2.736,0.618&#10;&#9;&#9;&#9;c-0.77,1.605-0.043,1.69-0.257,3.358c-0.184,1.438,0.936,2.209,1.851,1.762c0.322-0.158,0.661-0.276,1.014-0.339&#10;&#9;&#9;&#9;c1.328-0.236,1.816-1.586,1.966-2.71C407.273,401.913,407.316,401.311,406.034,401.121z"/>
      <path style="fill:#D37A5B;" d="M430.614,329.747c0,0,0.105-0.342,0.618-0.77c0.513-0.428,0.986-1.967-0.618-2.736&#10;&#9;&#9;&#9;c-1.605-0.77-1.69-0.043-3.358-0.256c-1.438-0.185-2.209,0.936-1.762,1.85c0.158,0.322,0.276,0.661,0.339,1.014&#10;&#9;&#9;&#9;c0.236,1.328,1.586,1.816,2.71,1.966C429.822,330.986,430.424,331.029,430.614,329.747z"/>
      <path style="fill:#D37A5B;" d="M358.85,367.211c0,0-0.18-0.055-0.405-0.326c-0.225-0.27-1.035-0.519-1.44,0.326&#10;&#9;&#9;&#9;c-0.405,0.845-0.023,0.89-0.135,1.768c-0.097,0.757,0.492,1.163,0.974,0.927c0.17-0.083,0.348-0.145,0.534-0.178&#10;&#9;&#9;&#9;c0.699-0.124,0.956-0.835,1.035-1.426C359.503,367.628,359.525,367.311,358.85,367.211z"/>
      <path style="fill:#D37A5B;" d="M349.237,339.037c0,0-0.18-0.056-0.405-0.326c-0.225-0.27-1.035-0.519-1.44,0.326&#10;&#9;&#9;&#9;c-0.405,0.845-0.022,0.89-0.135,1.768c-0.097,0.757,0.492,1.163,0.974,0.927c0.17-0.083,0.348-0.145,0.534-0.178&#10;&#9;&#9;&#9;c0.699-0.125,0.956-0.835,1.035-1.427C349.889,339.454,349.912,339.138,349.237,339.037z"/>
      <g>
        <path style="fill:#AD6332;" d="M367.277,315.503c-0.363,0.291-0.828,0.828-0.706,1.607c0.112,0.72,0.858,1.2,1.52,0.898&#10;&#9;&#9;&#9;&#9;c0.838-0.383,0.334-1.52,1.453-1.574c1.361-0.065,0.002-3.906-1.615-1.608C367.748,315.084,367.522,315.306,367.277,315.503z"/>
        <path style="fill:#AD6332;" d="M393.115,381.203c0.56-0.809,0.359-1.919-0.45-2.479c-0.809-0.56-1.919-0.359-2.479,0.45&#10;&#9;&#9;&#9;&#9;c-0.56,0.809,0.264,1.02,1.072,1.58C392.067,381.314,392.555,382.012,393.115,381.203z"/>
        <path style="fill:#AD6332;" d="M397.187,378.821c0.196-0.283,0.126-0.672-0.158-0.868c-0.283-0.196-0.672-0.126-0.868,0.158&#10;&#9;&#9;&#9;&#9;c-0.196,0.283-0.395,1.06-0.111,1.256C396.333,379.563,396.991,379.104,397.187,378.821z"/>
        <path style="fill:#AD6332;" d="M338.425,336.114c0.176,0.968,1.103,1.61,2.071,1.435c0.968-0.176,1.61-1.103,1.435-2.071&#10;&#9;&#9;&#9;&#9;c-0.176-0.968-0.908-0.535-1.876-0.359C339.086,335.294,338.249,335.146,338.425,336.114z"/>
        <path style="fill:#AD6332;" d="M395.245,338.175c0.176,0.968,1.103,1.61,2.071,1.435c0.968-0.176,1.61-1.103,1.435-2.071&#10;&#9;&#9;&#9;&#9;c-0.176-0.968-0.908-0.535-1.876-0.359C395.907,337.356,395.069,337.207,395.245,338.175z"/>
        <path style="fill:#AD6332;" d="M368.666,326.409c0.062,0.339,0.386,0.564,0.725,0.503c0.339-0.061,0.564-0.386,0.503-0.725&#10;&#9;&#9;&#9;&#9;c-0.062-0.339-0.471-1.029-0.81-0.967C368.745,325.28,368.605,326.07,368.666,326.409z"/>
      </g>
      <g>
        <path style="fill:#4D382D;" d="M312.435,193.414c0.865-2.904-2.312-6.414-7.096-7.84s-9.364-0.226-10.229,2.678&#10;&#9;&#9;&#9;&#9;c-0.865,2.905,3.216,3.379,8,4.804C307.894,194.482,311.569,196.319,312.435,193.414z"/>
        <path style="fill:#4D382D;" d="M295.913,203.268c-1.041,3.492,0.263,5.36,2.371,5.988c2.108,0.628,4.221-0.222,5.262-3.714&#10;&#9;&#9;&#9;&#9;c1.04-3.492-0.263-5.36-2.371-5.988C299.066,198.926,296.953,199.776,295.913,203.268z"/>
      </g>
      <line style="fill:none;stroke:#4D382D;stroke-width:1.5;stroke-linecap:round;stroke-linejoin:round;stroke-miterlimit:10;" x1="282.728" y1="234.141" x2="291.691" y2="236.844"/>
      <path style="fill:none;stroke:#846149;stroke-width:1.5;stroke-linecap:round;stroke-linejoin:round;stroke-miterlimit:10;" d="&#10;&#9;&#9;&#9;M323.834,103.558c0,0-21.691,20.475-7.501,52.303"/>
      <path style="fill:none;stroke:#846149;stroke-width:1.5;stroke-linecap:round;stroke-linejoin:round;stroke-miterlimit:10;" d="&#10;&#9;&#9;&#9;M327.888,107.207c0,0-18.042,29.598,7.501,57.168"/>
      <path style="fill:none;stroke:#846149;stroke-width:1.5;stroke-linecap:round;stroke-linejoin:round;stroke-miterlimit:10;" d="&#10;&#9;&#9;&#9;M358.556,172.687c0,0,26.298,7.195,52.246-15.357"/>
      <path style="fill:none;stroke:#846149;stroke-width:1.5;stroke-linecap:round;stroke-linejoin:round;stroke-miterlimit:10;" d="&#10;&#9;&#9;&#9;M353.634,187.283c0,0,35.882,5.879,58.587-26.151"/>
      <path style="fill:none;stroke:#846149;stroke-width:1.5;stroke-linecap:round;stroke-linejoin:round;stroke-miterlimit:10;" d="&#10;&#9;&#9;&#9;M377.556,228.436c0,0,18.651,3.852,31.625-21.894"/>
      <line style="fill:none;stroke:#C1774D;stroke-width:1.5;stroke-linecap:round;stroke-linejoin:round;stroke-miterlimit:10;" x1="445.97" y1="369.973" x2="464.227" y2="454.131"/>
    </g>
    <g>
      <g>
        <path style="fill:#AD6332;" d="M233.9,146.532c0,0-2.665-5.036-1.703-15.625c0.963-10.589-11.034-33.248-37.766-23.844&#10;&#9;&#9;&#9;&#9;c-13.815,4.86-12.574,11.369-11.072,18.784c2.171,10.72-5.315,21.144-16.201,22.202c-22.778,2.212-26.08,29.53-12.682,34.504&#10;&#9;&#9;&#9;&#9;c4.883,1.813,12.424,5.804,16.829,8.582c17.316,10.921,37.333,1.427,51.313-9.254C238.936,169.414,246.192,163.12,233.9,146.532z&#10;&#9;&#9;&#9;&#9;"/>
        <path style="fill:#E08A5A;" d="M188.056,198.044c-5.953,0.001-12.022-1.459-17.864-5.144c-4.239-2.673-11.731-6.642-16.442-8.391&#10;&#9;&#9;&#9;&#9;c-6.504-2.414-10.147-9.629-9.064-17.954c1.208-9.287,8.562-19.253,22.271-20.584c4.591-0.446,8.647-2.757,11.421-6.505&#10;&#9;&#9;&#9;&#9;c2.8-3.783,3.87-8.597,2.937-13.205c-1.489-7.349-3.176-15.679,12.425-21.167c14.41-5.069,23.997-1.027,29.501,3.257&#10;&#9;&#9;&#9;&#9;c8.034,6.257,11.634,16.178,11.037,22.745c-0.806,8.866,1.074,13.574,1.423,14.358c13.69,18.6,3.535,26.359-11.813,38.085&#10;&#9;&#9;&#9;&#9;C215.734,189.767,202.229,198.044,188.056,198.044z M206.472,106.924c-3.301,0-7.072,0.604-11.348,2.109&#10;&#9;&#9;&#9;&#9;c-12.173,4.281-11.197,9.103-9.719,16.399c1.168,5.765-0.171,11.787-3.672,16.519c-3.436,4.642-8.674,7.622-14.373,8.176&#10;&#9;&#9;&#9;&#9;c-12.206,1.186-17.613,9.882-18.535,16.968c-0.687,5.288,1.018,11.513,6.377,13.502c5.03,1.867,12.703,5.928,17.216,8.774&#10;&#9;&#9;&#9;&#9;c17.616,11.112,38.22-0.963,48.932-9.147c16.937-12.94,21.775-17.736,10.872-32.448c-0.063-0.084-0.119-0.173-0.168-0.266&#10;&#9;&#9;&#9;&#9;c-0.121-0.228-2.944-5.711-1.937-16.79c0.489-5.38-2.91-13.986-9.444-19.074C217.577,109.234,212.924,106.924,206.472,106.924z"/>
      </g>
      <g>
        <path style="fill:none;stroke:#E08A5A;stroke-width:1.5654;stroke-linecap:round;stroke-linejoin:round;stroke-dasharray:2.0755,5.1887;" d="&#10;&#9;&#9;&#9;&#9;M251.322,144.802c-3.14-6.888-3.385-14.371-2.694-21.967c1.361-14.974-15.603-47.014-53.403-33.716&#10;&#9;&#9;&#9;&#9;c-19.535,6.872-21.374,17.498-19.25,27.983c3.07,15.158-5.636,24.772-21.03,26.267c-32.209,3.129-35.163,45.462-16.218,52.496&#10;&#9;&#9;&#9;&#9;c6.904,2.563,17.568,8.206,23.797,12.135c24.485,15.443,52.789,2.019,72.557-13.085c8.321-6.357,19.995-13.658,23.662-24.081&#10;&#9;&#9;&#9;&#9;C262.204,161.032,255.359,153.114,251.322,144.802L251.322,144.802z"/>
      </g>
      <path style="fill:#934114;" d="M178.076,179.965c0,0-18.544-2.715-19.222-10.181c-0.679-7.466,14.932-13.047,24.434-4.148&#10;&#9;&#9;&#9;C192.791,174.535,185.39,181.612,178.076,179.965z"/>
      <line style="fill:none;stroke:#D5C2AD;stroke-width:1.5654;stroke-linecap:round;stroke-linejoin:round;stroke-miterlimit:10;" x1="105.355" y1="102.279" x2="176.137" y2="102.279"/>
      <line style="fill:none;stroke:#D5C2AD;stroke-width:1.5654;stroke-linecap:round;stroke-linejoin:round;stroke-miterlimit:10;" x1="103.96" y1="123.411" x2="183.359" y2="123.411"/>
      <line style="fill:none;stroke:#D5C2AD;stroke-width:1.5654;stroke-linecap:round;stroke-linejoin:round;stroke-miterlimit:10;" x1="103.961" y1="144.543" x2="206.309" y2="144.543"/>
      <line style="fill:none;stroke:#D5C2AD;stroke-width:1.5654;stroke-linecap:round;stroke-linejoin:round;stroke-miterlimit:10;" x1="105.731" y1="165.676" x2="171.626" y2="165.676"/>
      <line style="fill:none;stroke:#D5C2AD;stroke-width:1.5654;stroke-linecap:round;stroke-linejoin:round;stroke-miterlimit:10;" x1="103.701" y1="186.808" x2="168.346" y2="186.808"/>
    </g>
    <g>
      <g>
        <g>
          <rect x="68.11" y="233.973" transform="matrix(-1.836970e-16 1 -1 -1.836970e-16 354.1699 165.8629)" style="fill:none;stroke:#D5C2AD;stroke-width:1.5654;stroke-linecap:round;stroke-linejoin:round;stroke-miterlimit:10;" width="52.086" height="52.086"/>
          <path style="fill:#AD6332;" d="M98.692,252.567c0,0-1.145-0.352-2.575-2.069c-1.431-1.717-6.581-3.301-9.156,2.069&#10;&#9;&#9;&#9;&#9;&#9;c-2.575,5.37-0.143,5.656-0.858,11.236c-0.617,4.813,3.131,7.391,6.193,5.895c1.079-0.527,2.211-0.924,3.393-1.134&#10;&#9;&#9;&#9;&#9;&#9;c4.445-0.79,6.077-5.308,6.58-9.068C102.841,255.219,102.984,253.205,98.692,252.567z"/>
        </g>
        <g>
          <rect x="68.11" y="376.88" transform="matrix(-1.836970e-16 1 -1 -1.836970e-16 497.0763 308.7693)" style="fill:none;stroke:#D5C2AD;stroke-width:1.5654;stroke-linecap:round;stroke-linejoin:round;stroke-miterlimit:10;" width="52.086" height="52.086"/>
          <path style="fill:#4D382D;" d="M95.01,392.175c0,0-1.093,0.497-2.384-0.497c-1.291-0.993-2.881,1.887-5.066,2.086&#10;&#9;&#9;&#9;&#9;&#9;c-2.185,0.199-2.991,2.98-3.78,5.165s-0.999,3.477,0,4.271c0.999,0.795-0.988,3.179,0.999,3.973&#10;&#9;&#9;&#9;&#9;&#9;c1.987,0.795,0.695,4.669,3.476,4.867c2.781,0.199,5.761,2.384,9.039,0.596c3.278-1.788,2.98-3.179,5.563-4.669&#10;&#9;&#9;&#9;&#9;&#9;c2.583-1.49,2.583-3.781,2.086-5.566c-0.497-1.785-1.291-3.672-1.788-5.858C102.658,394.361,98.387,389.791,95.01,392.175z"/>
        </g>
        <g>
          <rect x="68.11" y="305.427" transform="matrix(-1.836970e-16 1 -1 -1.836970e-16 425.6231 237.3162)" style="fill:none;stroke:#D5C2AD;stroke-width:1.5654;stroke-linecap:round;stroke-linejoin:round;stroke-miterlimit:10;" width="52.086" height="52.086"/>
          <path style="fill:#DE9E78;" d="M96.786,318.483c0,0-1.227,0.593-2.59-0.907c-1.363-1.5-2.863-1.5-3.681,1.023&#10;&#9;&#9;&#9;&#9;&#9;c-0.818,2.522-3.545,3.34-2.181,5.658c1.363,2.318-2.182,4.09-1.773,6.544c0.409,2.454,6.817,9.271,8.726,7.226&#10;&#9;&#9;&#9;&#9;&#9;c1.909-2.045,6.817,3.602,8.453,1.46c1.636-2.142-1.5-5.053,1.227-6.392c2.727-1.339,2.727-4.202-0.954-6.384&#10;&#9;&#9;&#9;&#9;&#9;C100.331,324.529,103.058,318.367,96.786,318.483z"/>
          <path style="fill:#D37A5B;" d="M94.016,345.926c-0.128,1.146-1.401,1.791-2.325,1.101c-0.389-0.291-0.79-0.694-1.177-1.252&#10;&#9;&#9;&#9;&#9;&#9;c-1.772-2.55-2.59-0.641-3.954-3.914c-1.363-3.272-0.015-4.09-2.871-5.454c-2.855-1.363,0.28-4.09-1.492-5.999&#10;&#9;&#9;&#9;&#9;&#9;c-1.772-1.909-0.545-6.497,3.272-4.68c3.817,1.817,0.954,5.771,3.681,5.089c2.727-0.682,3.545,0,2.999,2.59&#10;&#9;&#9;&#9;&#9;&#9;c-0.545,2.591,3,1.772,4.363,4.499c1.363,2.727,1.909,5.863,0,5.999C95.161,344.003,94.151,344.719,94.016,345.926z"/>
        </g>
      </g>
    </g>
  </g>
  <g id="TEXTS" transform="matrix(0.9999999999999999, 0, 0, 0.9999999999999999, -7.105427357601002e-15, 0)">
    <g>
      <text style="fill: rgb(186, 170, 158); font-family: Montserrat-ExtraBold; font-size: 14px; font-weight: 700; letter-spacing: 1px; text-transform: uppercase; white-space: pre;" x="204.782" y="50.083">melanoma</text>
    </g>
    <g>
      <text transform="matrix(1 0 0 1 36.647 189.3591)" style="fill: rgb(77, 56, 45); font-family: Montserrat-ExtraBold; font-size: 8.349px; white-space: pre;">ASYMMETRY</text>
    </g>
    <g>
      <text transform="matrix(1 0 0 1 55.023 125.9616)" style="fill: rgb(77, 56, 45); font-family: Montserrat-ExtraBold; font-size: 8.349px; white-space: pre;">BORDER</text>
    </g>
    <g>
      <text transform="matrix(1 0 0 1 61.8116 168.2267)" style="fill: rgb(77, 56, 45); font-family: Montserrat-ExtraBold; font-size: 8.349px; white-space: pre;">COLOR</text>
    </g>
    <g>
      <text transform="matrix(1 0 0 1 73.8584 147.0939)" style="fill: rgb(77, 56, 45); font-family: Montserrat-ExtraBold; font-size: 8.349px; white-space: pre;">SIZE</text>
    </g>
    <g>
      <text transform="matrix(1 0 0 1 40.7217 104.8288)" style="fill: rgb(77, 56, 45); font-family: Montserrat-ExtraBold; font-size: 8.349px; white-space: pre;">EVOLUTION</text>
    </g>
    <g>
      <text transform="matrix(1 0 0 1 125.6445 257.4972)" style="white-space: pre;"><tspan x="0" y="0" style="fill:#4D382D; font-family:'Montserrat-ExtraBold'; font-size:8.9628px;">LENTIGO MALIGNA</tspan><tspan x="0" y="10.755" style="fill:#4D382D; font-family:'Montserrat-ExtraBold'; font-size:8.9628px;">MELANOMA</tspan></text>
    </g>
    <g>
      <text transform="matrix(1 0 0 1 126.6167 328.2692)" style="white-space: pre;"><tspan x="0" y="0" style="fill:#4D382D; font-family:'Montserrat-ExtraBold'; font-size:8.9628px;">SUPERFICIAL SPREADIR</tspan><tspan x="0" y="10.755" style="fill:#4D382D; font-family:'Montserrat-ExtraBold'; font-size:8.9628px;">MELANOMA</tspan></text>
    </g>
    <g>
      <text transform="matrix(1 0 0 1 125.8545 404.9235)" style="fill: rgb(77, 56, 45); font-family: Montserrat-ExtraBold; font-size: 8.9628px; white-space: pre;">NODULAR MELANOMA</text>
    </g>
  </g>
</svg>