<?xml version="1.0" encoding="UTF-8" standalone="no"?>
<!-- Created with Inkscape (http://www.inkscape.org/) -->
<svg
   xmlns:svg="http://www.w3.org/2000/svg"
   xmlns="http://www.w3.org/2000/svg"
   version="1.0"
   width="545"
   height="291"
   id="svg2">
  <defs
     id="defs4" />
  <path
     d="M 272.35001,146.34399 L 335.646,109.74801 L 398.64201,146.34399 M 398.64201,146.34399 L 398.64201,219.23599 L 461.93802,255.53201 L 524.93402,219.23599 L 524.93402,146.34399 L 461.93802,109.74801 L 398.64201,146.34399 M 460.66514,119.34696 L 516.7616,152.04337 M 460.66514,245.93306 L 516.7616,213.23665 M 407.56851,215.33642 L 407.56851,150.24356 M 340.14572,54.854025 L 340.14572,111.76832 M 331.14629,54.854025 L 331.14629,111.76832 M 209.35401,109.74801 L 272.35001,146.34399 M 146.05801,219.23599 L 146.05801,146.34399 L 209.35401,109.74801 M 146.05801,218.93602 L 209.35401,255.53201 L 272.35001,219.23599 L 272.35001,146.34399 M 154.75746,215.33642 L 154.75746,150.24356 M 263.95056,152.04337 L 207.55413,119.34696 M 263.95056,213.23665 L 207.55413,245.93306 M 209.35401,109.74801 L 209.35401,54.854025 M 20.06598,219.23599 L 65.36313,245.33313 M 146.05801,219.23599 L 100.46089,245.63309"
     style="fill:none;stroke:#000000;stroke-width:2.99980998px;stroke-linejoin:miter;stroke-opacity:1"
     id="path3355" />
  <text
     x="317.05774"
     y="51.539116"
     style="font-size:45px;font-style:normal;font-weight:normal;fill:#000000;fill-opacity:1;stroke:none;stroke-width:1px;stroke-linecap:butt;stroke-linejoin:miter;stroke-opacity:1;font-family:Arial"
     id="text3412"
     xml:space="preserve"><tspan
       x="317.05774"
       y="51.539116"
       id="tspan3414">O</tspan></text>
  <text
     x="65.127197"
     y="271.69476"
     style="font-size:45px;font-style:normal;font-weight:normal;fill:#000000;fill-opacity:1;stroke:none;stroke-width:1px;stroke-linecap:butt;stroke-linejoin:miter;stroke-opacity:1;font-family:Arial"
     id="text3421"
     xml:space="preserve"><tspan
       x="65.127197"
       y="271.69476"
       id="tspan3423">O</tspan></text>
  <text
     x="191.77588"
     y="51.539116"
     style="font-size:45px;font-style:normal;font-weight:normal;fill:#000000;fill-opacity:1;stroke:none;stroke-width:1px;stroke-linecap:butt;stroke-linejoin:miter;stroke-opacity:1;font-family:Arial"
     id="text2212"
     xml:space="preserve"><tspan
       x="191.77588"
       y="51.539116"
       id="tspan2214">OH</tspan></text>
</svg>
