<?xml version="1.0" encoding="utf-8"?>
<svg viewBox="0 0 750 547.376" style="enable-background:new 0 0 750 500;" xmlns="http://www.w3.org/2000/svg">
  <g id="BACKGROUND" style="" transform="matrix(1, 0, 0, 1.100000023841858, 5.684341886080802e-14, 0)">
    <rect style="fill:#FFFFFF;" width="750" height="500"/>
  </g>
  <g id="OBJECTS" transform="matrix(1, 0, 0, 1, 2.849121221115638, 18.46933828902263)">
    <g>
      <path style="fill:#C2E9F2;" d="M727.36,249.67c-0.69,16-8.69,22.19-23.36,22.19l-71.44-0.11l-39.27-0.07l-40.38-0.06l-60.91-0.1&#10;&#9;&#9;&#9;c0,0-12.55,1.05-25.13-7.29c-1.75-1.15-3.49-2.49-5.2-4.04c-6.18-5.57-11.93-13.87-15.67-26.19&#10;&#9;&#9;&#9;c-7.04-23.18,6.61-42.45,15.12-63.46c3.6-8.88,6.28-18.08,6.1-28.01c-0.07-3.8-0.55-7.72-1.58-11.77&#10;&#9;&#9;&#9;c-1.42-5.64-3.87-11.54-7.64-17.76c-22.58-37.2,2.32-61.09,20.42-69.22c0.34-0.16,0.68-0.31,1.01-0.45&#10;&#9;&#9;&#9;c0.17-0.07,0.34-0.14,0.51-0.21C518.2,27.42,539,74.18,580.66,54.23c32.27-15.45,56.7-22.12,75.05-22.93&#10;&#9;&#9;&#9;c2.73-0.13,5.32-0.12,7.78,0.01h0.04c1.19,0.07,2.34,0.16,3.47,0.27c2.04,0.22,3.98,0.52,5.83,0.89&#10;&#9;&#9;&#9;c7.91,1.63,14.14,4.74,18.98,8.84c1.05,0.89,2.03,1.82,2.96,2.8c10.09,10.66,12.74,26.29,11.87,40.27c-0.04,0.67-0.09,1.34-0.15,2&#10;&#9;&#9;&#9;c-0.05,0.58-0.11,1.17-0.16,1.74c-0.47,4.35-1.26,8.46-2.25,12.14c-1.04,3.91-2.3,7.33-3.64,9.99&#10;&#9;&#9;&#9;c-9.72,18.81-22.22,58.15,9.72,91.21c6.21,6.43,10.47,13.23,13.29,20.03c0.63,1.54,1.2,3.09,1.7,4.63&#10;&#9;&#9;&#9;c0.14,0.42,0.26,0.82,0.39,1.23c0.45,1.51,0.85,3.02,1.18,4.51C728.93,241.78,727.69,241.9,727.36,249.67z"/>
      <g>
        <path style="opacity:0.9;fill:#EAAC21;" d="M694.77,44.11c-0.93-0.98-1.91-1.91-2.96-2.8c-4.84-4.1-11.07-7.21-18.98-8.84&#10;&#9;&#9;&#9;&#9;c-1.85-0.37-6.913-1.303-9.3-1.16h-0.04c-2.46-0.13-5.05-0.14-7.78-0.01c3.11,2.37,7.02,5.57,5.74,5.83&#10;&#9;&#9;&#9;&#9;c-2.03,0.41-13.45,0.41-13.45,0.41s11.01,6.52,9.79,6.93c-1.23,0.41-13.86,2.65-13.86,2.65s12.7,3.29,12.02,4.69&#10;&#9;&#9;&#9;&#9;c-1.19,2.45-11.75,5.51-13.26,6.23h-0.19c0,0,0.04,0.01,0.09,0.04c-0.05,0.03-0.09,0.04-0.09,0.04h0.19&#10;&#9;&#9;&#9;&#9;c1.51,0.72,13.3,2.67,13.26,6.23c-0.02,1.56-12.02,4.69-12.02,4.69s12.63,2.24,13.86,2.65c1.22,0.41-9.79,6.93-9.79,6.93&#10;&#9;&#9;&#9;&#9;s11.42,0,13.45,0.41c2.04,0.4-9.17,8.35-9.17,8.35s12.64-3.05,14.47-3.05c1.84,0-6.72,12.22-6.72,12.22s11.61-7.13,13.24-7.54&#10;&#9;&#9;&#9;&#9;c1.64-0.4-3.46,11.82-3.46,11.82s8.36-8.96,9.17-9.57c0.82-0.62-1.83,16.91-1.83,16.91s8.35-12.84,9.98-14.26&#10;&#9;&#9;&#9;&#9;c1.55-1.36,5.51,14.12,5.93,15.74v0.24c0,0,0.01-0.05,0.03-0.12v-0.02c0.44-1.6,4.73-17.2,6.28-15.84&#10;&#9;&#9;&#9;&#9;c0.71,0.62,2.69,3.4,4.71,6.35c0.99-3.68,1.78-7.79,2.25-12.14c0.05-0.57,0.11-1.16,0.16-1.74c0.06-0.66,0.11-1.33,0.15-2&#10;&#9;&#9;&#9;&#9;C707.51,70.4,704.86,54.77,694.77,44.11z"/>
        <path style="fill:#FFCC4A;" d="M706.64,84.38c-0.04,0.67-0.09,1.34-0.15,2c-0.05,0.58-0.11,1.17-0.16,1.74&#10;&#9;&#9;&#9;&#9;c-4,1.75-8.43,2.72-13.08,2.72c-18.09,0-32.76-14.67-32.76-32.76c0-10.37,4.82-19.61,12.34-25.61&#10;&#9;&#9;&#9;&#9;c7.91,1.63,14.14,4.74,18.98,8.84c1.05,0.89,2.03,1.82,2.96,2.8C704.86,54.77,707.51,70.4,706.64,84.38z"/>
      </g>
      <path style="fill:#A16E62;" d="M461.67,260.19c-6.18-5.57-11.93-13.87-15.67-26.19c-7.04-23.18,6.61-42.45,15.12-63.46&#10;&#9;&#9;&#9;C455.97,200.19,457.89,235.22,461.67,260.19z"/>
      <g>
        <path style="fill:#5DB589;" d="M507.5,109.5c0,0,1,12.5-3,17s-14,0-14,0s-3.33,8-10.83,9.5c-6.74,1.35-13.23-3.79-14.03-5.24&#10;&#9;&#9;&#9;&#9;c-0.56-2.23-1.29-4.5-2.19-6.82c-1.38-3.54-3.17-7.18-5.45-10.94c-12.31-20.27-10.51-36.59-3.39-48.56&#10;&#9;&#9;&#9;&#9;c5.93-10,15.58-16.96,23.81-20.66c0.24,0.4,0.44,0.8,0.58,1.22c1.88,5.64-2.86,10.39-3.44,10.96c0.92-0.55,12.31-7.15,20.94,0.04&#10;&#9;&#9;&#9;&#9;c8.79,7.33,3.74,17.04,3.52,17.48c0.42-0.27,6.35-4,9.73,2.27c3.5,6.5-2.25,8.25-2.25,8.25s8.29,0.36,11.59,8.35&#10;&#9;&#9;&#9;&#9;c0.61,1.49,1.06,3.25,1.24,5.32C521.28,108.31,507.5,109.5,507.5,109.5z"/>
      </g>
      <path style="opacity:0.3;fill:#5DB589;" d="M507.5,109.5c0,0,1,12.5-3,17s-14,0-14,0s-3.33,8-10.83,9.5&#10;&#9;&#9;&#9;c-6.74,1.35-13.23-3.79-14.03-5.24c-0.56-2.23-1.29-4.5-2.19-6.82c7.71-4.21,9.55-12.69,9.55-12.69s1.75,4.75,6.75,3.5&#10;&#9;&#9;&#9;s3.75-7.25,3.75-7.25s5.25,5.5,13,1.25c6.53-3.58,4.36-10.89,3.52-13.1c0.66,0.97,2.99,2.74,11.23,3.1&#10;&#9;&#9;&#9;c5.95,0.26,7.62-3.1,7.84-6.4c0.61,1.49,1.06,3.25,1.24,5.32C521.28,108.31,507.5,109.5,507.5,109.5z"/>
      <g>
        <path style="fill:#FFFFFF;" d="M546.606,129.26c-0.279-0.612-7.134-9.444-7.134-9.444l-3.97,4.272L546.606,129.26z"/>
        <path style="fill:#FFFFFF;" d="M549.74,154.274c-0.374,0.559-8.57,8.164-8.57,8.164l-2.678-4.763L549.74,154.274z"/>
        <path style="fill:#FFFFFF;" d="M540.404,140.825c-0.625-0.25-11.682-1.901-11.682-1.901l0.081,5.831L540.404,140.825z"/>
      </g>
      <g>
        <g>
          <path style="fill:#E3A99A;" d="M566.458,196.469c-18.496,28.389-32.166,50.126-37.947,54.388&#10;&#9;&#9;&#9;&#9;&#9;c-0.409,0.302-0.977,0.243-1.339-0.114l-14.804-14.558c-0.371-0.365-0.418-0.947-0.111-1.367l13.928-19.013l1.767-2.416&#10;&#9;&#9;&#9;&#9;&#9;l23.666-32.316c0.39-0.532,1.168-0.576,1.615-0.092l13.119,14.2C566.679,195.534,566.72,196.067,566.458,196.469z"/>
          <path style="opacity:0.3;fill:#CA5B67;" d="M532.548,231.285c0.802-6.346-3.355-16.204-4.268-18.272l1.767-2.416&#10;&#9;&#9;&#9;&#9;&#9;c0.109,0.171,0.222,0.363,0.344,0.583C535.279,220.056,532.548,231.285,532.548,231.285z"/>
          <path style="fill:#E3A99A;" d="M507.893,172.368c-0.333,0.182-0.543,0.519-0.55,0.898c-0.093,5.172-0.647,43.556,2.98,64.281&#10;&#9;&#9;&#9;&#9;&#9;c3.601,19.448,21.689,21.193,22.548,0.264c0.003-0.072-0.001-0.146-0.011-0.217c-5.074-34.346-11.457-61.343-12.391-65.221&#10;&#9;&#9;&#9;&#9;&#9;c-0.074-0.308-0.282-0.568-0.568-0.703C514.592,169.178,509.519,171.478,507.893,172.368z"/>
          <g>
            <path style="fill:#DE9D8C;" d="M496.667,162.75c0.007-0.001-0.331-0.439-0.324-0.44c0.785-0.071,3.842,1.68,3.408,1.023&#10;&#9;&#9;&#9;&#9;&#9;&#9;c-1.494-2.263-6.362-8.343-6.57-8.986c-0.187-0.578-0.032-2.658-0.069-4.469c-0.001-0.044-0.007-0.081-0.011-0.125&#10;&#9;&#9;&#9;&#9;&#9;&#9;c-0.04-0.39,0.03-2.097-0.504-2.637c-0.925-1.05-3.072-0.528-3.643,3.257c-0.174,1.157-0.304,2.038-0.397,2.763&#10;&#9;&#9;&#9;&#9;&#9;&#9;c0.05,0.271,0.105,0.484,0.168,0.619c0.409,0.879,4.983,6.21,6.705,8.203C495.652,162.217,496.326,162.78,496.667,162.75z"/>
            <path style="fill:#DE9D8C;" d="M495.767,162.349c-1.344-1.553-6.603-7.649-7.043-8.594c-0.063-0.134-0.117-0.348-0.168-0.619&#10;&#9;&#9;&#9;&#9;&#9;&#9;c-0.356-1.914-0.489-6.75-1.564-7.7c-1.228-1.085-3.647-0.167-3.759,4.315c-0.013,0.531-0.024,1.003-0.034,1.441&#10;&#9;&#9;&#9;&#9;&#9;&#9;c-0.007,0.319,0.129,0.615,0.374,0.819c1.667,1.384,3.471,3.005,5.14,4.552c3.051,2.826,5.638,5.379,6.034,5.677&#10;&#9;&#9;&#9;&#9;&#9;&#9;C494.886,162.342,495.261,162.37,495.767,162.349z"/>
            <g>
              <path style="fill:#DE9D8C;" d="M515.342,171.359c0.001,0,0.002,0.001,0.003,0.001c-0.435-0.048-0.709-0.073-0.695-0.058&#10;&#9;&#9;&#9;&#9;&#9;&#9;&#9;c-5.231-0.766-11.193-6.246-12.862-7.352c-1.723-1.141-8.016-9.082-5.584-10.548c0.551-0.348,0.826-0.381,1.386-0.401&#10;&#9;&#9;&#9;&#9;&#9;&#9;&#9;c3.723,0.094,5.994,4.736,6.647,5.138c0.68,0.418,2.379,0.744,3.673,0.636c0.047-0.004,0.095-0.005,0.142-0.002&#10;&#9;&#9;&#9;&#9;&#9;&#9;&#9;c4.493,0.253,6.689,2.119,7.59,3.189c0.326,0.387,0.315,0.959-0.018,1.341C514.138,165.015,510.417,169.935,515.342,171.359z"/>
              <path style="fill:#E3A99A;" d="M517.373,163.51c-3.381-5.732-15.435-2.255-15.435-2.255l-0.001-0.001&#10;&#9;&#9;&#9;&#9;&#9;&#9;&#9;c-0.798,0.246-2.395,0.595-3.893,0.835c-0.852,0.137-1.663,0.234-2.277,0.259c-0.507,0.021-0.881-0.007-1.019-0.11&#10;&#9;&#9;&#9;&#9;&#9;&#9;&#9;c-0.396-0.297-2.982-2.851-6.034-5.676c-1.799-1.666-3.753-3.419-5.525-4.869c-0.431-0.353-0.854-0.694-1.258-1.004&#10;&#9;&#9;&#9;&#9;&#9;&#9;&#9;c-4.463-3.564-6.863-1.098-4.018,2.136c3.001,2.788,11.363,14.985,14.622,16.357c2.791,1.177,11.544,3.23,14.001,3.799&#10;&#9;&#9;&#9;&#9;&#9;&#9;&#9;c0.378,0.087,0.669,0.376,0.77,0.749c0.049,0.182,0.106,0.386,0.161,0.583c0.143,0.517,0.654,0.842,1.184,0.753l10.796-1.816&#10;&#9;&#9;&#9;&#9;&#9;&#9;&#9;c0.58-0.098,0.968-0.652,0.856-1.229C519.919,170.043,518.948,165.761,517.373,163.51z"/>
              <path style="opacity:0.5;fill:#E09884;" d="M480.381,155.596c0,0,1.097-1.57,2.069-0.97c0.888,0.548,4.604,3.734,5.234,4.275&#10;&#9;&#9;&#9;&#9;&#9;&#9;&#9;c0.061,0.053,0.127,0.097,0.199,0.134c0.779,0.404,5.545,2.859,6.866,3.205l-6.522-3.873c-0.051-0.031-0.095-0.061-0.14-0.099&#10;&#9;&#9;&#9;&#9;&#9;&#9;&#9;c-0.576-0.492-4.947-4.213-5.682-4.483C481.617,153.494,480.481,155.191,480.381,155.596z"/>
            </g>
            <path style="fill:#E3A99A;" d="M495.256,162.968c-0.103-0.217-0.273-0.39-0.49-0.493c-1.201-0.574-5.33-2.553-6.535-3.198&#10;&#9;&#9;&#9;&#9;&#9;&#9;c-1.415-0.758-4.675-4.555-6.318-4.842c-0.962-0.086-2.63,1.477-0.901,3.635c1.729,2.159,9.266,9.746,10.905,10.717&#10;&#9;&#9;&#9;&#9;&#9;&#9;c1.099,0.651,3.306,0.088,4.64-0.354c0.595-0.197,0.878-0.876,0.609-1.442L495.256,162.968z"/>
          </g>
        </g>
        <path style="fill:#DE9D8C;" d="M652.959,125.563c0,0-1.816-0.57-2.725,0.878c0,0,4.836,7.982,3.873,12.47&#10;&#9;&#9;&#9;&#9;c-0.963,4.488-0.789,17.443,9.462,19.351c10.251,1.908,4.982-17.907,4.982-17.907s-6.456,2.14-7.287-1.715&#10;&#9;&#9;&#9;&#9;C660.433,134.785,659.148,126.454,652.959,125.563z"/>
        <g>
          <path style="fill:#E3A99A;" d="M682.533,141.566c-0.578,2.617-7.128,24.235-7.128,24.235l-14.618-8.422l-0.583-0.337&#10;&#9;&#9;&#9;&#9;&#9;c-0.133-8.772,2.397-16.066,7.319-22.033l-3-2.767c0,0-2.651,0.175-2.738-2.28c0,0-2.75,2.717-4.494,1.51&#10;&#9;&#9;&#9;&#9;&#9;c-1.744-1.203-0.895-3.433-0.895-3.433s-5.888,0.89-5.102-2.189c0,0,0.154-1.411,3.67-2.018c3.516-0.612,5.21-0.541,5.21-0.541&#10;&#9;&#9;&#9;&#9;&#9;s2.222-1.781,4.494-1.419c4.095,0.653,9.712,2.38,9.712,2.38s3.562,0.524,4.086,1.49c0.528,0.965,2.243,9.716,2.243,9.716&#10;&#9;&#9;&#9;&#9;&#9;S683.115,138.948,682.533,141.566z"/>
        </g>
        <path style="opacity:0.3;fill:#CA5B67;" d="M656.504,127.865l3.518-4.323C660.022,123.542,658.326,123.669,656.504,127.865z"/>
        <path style="opacity:0.3;fill:#CA5B67;" d="M661.943,129.26c0,0,2.479-4.699,6.432-4.976c3.953-0.278,5.479,0.069,5.479,0.069&#10;&#9;&#9;&#9;&#9;S666.937,125.098,661.943,129.26z"/>
        <path style="opacity:0.3;fill:#CA5B67;" d="M674.477,133.351c0,0,2.619,3.708,0.106,4.473&#10;&#9;&#9;&#9;&#9;c-11.443,3.485-12.232,14.513-13.796,19.553l-0.583-0.337c-0.133-8.772,2.397-16.066,7.319-22.033l-3-2.767l2.88-1.386&#10;&#9;&#9;&#9;&#9;c0,0-0.724,3.225,2.759,2.963C673.645,133.559,674.477,133.351,674.477,133.351z"/>
        <path style="opacity:0.3;fill:#CA5B67;" d="M667.821,130.543c0,0,1.984-2.022,4.785-2.601c3.147-0.65,4.785-0.104,4.785-0.104&#10;&#9;&#9;&#9;&#9;C674.284,128.395,671.09,129.314,667.821,130.543z"/>
        <path style="fill:#E3A99A;" d="M641.966,185.702l22.057,25.879l-3.678-54.646l15.94,5.747c0,0,10.705,54.687,10.833,68.041&#10;&#9;&#9;&#9;&#9;c0.066,6.8-12.814,25.49-28.246,10.149c-15.431-15.341-26.749-24.919-26.749-24.919S625.19,192.025,641.966,185.702z"/>
        <polygon style="opacity:0.3;fill:#CA5B67;" points="664.024,211.581 664.509,225.313 659.499,206.224 &#9;&#9;&#9;"/>
        <path style="fill:#4B64A3;" d="M660.41,204.79c-0.45,0.28-0.9,0.61-1.34,0.98c-5.69,4.76-10.14,16.42-12.33,23.37&#10;&#9;&#9;&#9;&#9;c-0.82,2.6-1.32,4.54-1.46,5.23c-5.28-4.87-11.07-9.59-14.14-13.62c-0.22-0.28-0.43-0.57-0.62-0.85l0.33,8.38l1.17,29.62&#10;&#9;&#9;&#9;&#9;l0.54,13.85l-39.27-0.07l-40.38-0.06l-0.05-13.82l-0.12-29.79l-0.02-5.75l-8.35,13.18c-0.06-1.43-0.28-2.84-0.63-4.24&#10;&#9;&#9;&#9;&#9;c-2.31-9.42-10.34-17.76-13.58-20.83c-0.85-0.8-1.37-1.24-1.37-1.24s8.55-15.65,14.69-22.9c4.37-5.18,22.12-13.9,22.12-13.9&#10;&#9;&#9;&#9;&#9;l0.28,0.83l0.01,0.03c0,0,9.87-5.37,10.13-5.37l1.15,0.1h0.01l14.57,1.31l23.77,2.14c0.02,0,0.04,0,0.05,0.01l0.61,0.05&#10;&#9;&#9;&#9;&#9;l0.48-0.77l21.22,8.61c2.18,1.22,3.96,3.49,5.6,5.36l11.64,13.86c0.01,0.01,0.01,0.01,0.01,0.01l2.67,3.18&#10;&#9;&#9;&#9;&#9;c0,0.01,0.01,0.01,0.01,0.01L660.41,204.79z"/>
        <path style="fill:#E7AD4B;" d="M632.02,254.333c-27.468,3.674-53.895,3.774-79.166-0.1l-0.117-26.224&#10;&#9;&#9;&#9;&#9;c24.838,4.161,50.929,4.082,78.118,0.266L632.02,254.333z"/>
        <polygon style="opacity:0.3;fill:#57739B;" points="546.203,232.297 552.99,200.901 552.712,222.262 &#9;&#9;&#9;"/>
        <path style="opacity:0.3;fill:#57739B;" d="M632.56,271.75l-39.27-0.07c3.73-3.44,7.53-7.23,11.21-11.29&#10;&#9;&#9;&#9;&#9;c8.41-9.26,16.16-19.96,20.8-31.39c3.11-7.62,4.83-15.56,4.45-23.64c0.14,2.12,0.94,14.79,0.77,14.54l0.33,8.38l1.17,29.62&#10;&#9;&#9;&#9;&#9;L632.56,271.75z"/>
        <path style="fill:#E3A99A;" d="M572.728,156.047c5.99,6.005,3.238,11.666,3.238,11.666l-10.123,5.465&#10;&#9;&#9;&#9;&#9;c0,0-4.55,21.378,10.5,22.632c25.132,2.094,39.896-24.315,39.896-24.315s-10.111-1.6-10.819-6.38&#10;&#9;&#9;&#9;&#9;c-0.867-5.852,0.277-25.799,0.277-25.799S560.228,143.518,572.728,156.047z"/>
        <path style="opacity:0.3;fill:#CA5B67;" d="M576.223,164.144c0,0-0.344,8.205,9.363,6.866&#10;&#9;&#9;&#9;&#9;c18.101-2.497,19.558-23.303,19.558-23.303S583.297,138.345,576.223,164.144z"/>
        <g>
          <path style="fill:#583C1C;" d="M573.986,86.462c0,0-10.072,0.146-12.712,7.848c-2.374,6.926-7.476,7.582-7.476,7.582&#10;&#9;&#9;&#9;&#9;&#9;c1.755,1.024,2.615,2.084,4.189,1.451c0,0-2.344,12.039,1.523,19.742C570.424,144.824,573.986,86.462,573.986,86.462z"/>
          <path style="fill:#E3A99A;" d="M609.795,141.158c0,0-1.814,3.862-5.418,8.43c-4.943,6.288-13.253,13.919-24.846,14.718&#10;&#9;&#9;&#9;&#9;&#9;c-9.554,0.162-18.987-12.958-20.652-29.494c-0.241-2.413-0.32-4.902-0.208-7.432c0.828-18.779,11.381-33.743,24.031-34.804&#10;&#9;&#9;&#9;&#9;&#9;c0-0.004,0-0.017,0-0.017s19.42-3.949,28.566,19.408C611.268,111.967,616.653,127.051,609.795,141.158z"/>
          <path style="opacity:0.7;fill:#FFD6CC;" d="M604.217,135.337l5.769-3.376l-1.051-1.796l-6.642,3.887&#10;&#9;&#9;&#9;&#9;&#9;c-21.048,5.296-38.252,2.007-43.413,0.76c1.664,16.536,11.098,29.657,20.652,29.494c11.593-0.799,19.903-8.431,24.846-14.718&#10;&#9;&#9;&#9;&#9;&#9;C602.167,143.93,603.323,138.243,604.217,135.337z"/>
          <g>
            <path style="fill:#CA7E86;" d="M577.532,148.64c-4.68-0.242-6.707,3.495-6.832,3.642c-0.11,0.129-0.408,0.618-0.023,0.892&#10;&#9;&#9;&#9;&#9;&#9;&#9;c0.196,0.139,0.494,0.025,0.604-0.105c0.029-0.033,1.768-3.785,6.138-3.559c4.356,0.225,7.135,3.973,7.154,4.009&#10;&#9;&#9;&#9;&#9;&#9;&#9;c0.244,0.472,0.476,0.478,0.691,0.342c0.404-0.255,0.125-0.642,0.045-0.793C585.226,152.909,582.234,148.883,577.532,148.64z"/>
          </g>
          <g>
            <path style="fill:#583C1C;" d="M566.446,119.166c1.278-0.651,2.217-1.885,2.792-3.667c0.199-0.622,0.868-0.966,1.493-0.77&#10;&#9;&#9;&#9;&#9;&#9;&#9;c0.624,0.196,0.968,0.858,0.767,1.479c-0.78,2.416-2,3.793-3.875,4.741c-2.954,1.489-5.432,0.415-5.22-0.202&#10;&#9;&#9;&#9;&#9;&#9;&#9;C562.444,120.622,564.415,120.201,566.446,119.166z"/>
          </g>
          <g>
            <path style="fill:#583C1C;" d="M591.472,118.812c-1.416-0.232-2.685-1.123-3.773-2.646c-0.379-0.532-1.121-0.657-1.656-0.28&#10;&#9;&#9;&#9;&#9;&#9;&#9;c-0.535,0.376-0.662,1.111-0.282,1.641c1.476,2.065,3.057,3.007,5.132,3.34c3.267,0.522,5.303-1.253,4.914-1.776&#10;&#9;&#9;&#9;&#9;&#9;&#9;C595.727,118.985,593.721,119.182,591.472,118.812z"/>
          </g>
          <path style="fill:#383838;" d="M571.611,130.583c-0.027,2.598-0.762,4.697-1.642,4.688c-0.88-0.009-1.571-2.123-1.544-4.721&#10;&#9;&#9;&#9;&#9;&#9;c0.027-2.598,0.762-4.697,1.642-4.688C570.947,125.872,571.638,127.985,571.611,130.583z"/>
          <path style="fill:#383838;" d="M591.943,131.089c-0.028,2.691-0.849,4.864-1.834,4.854c-0.985-0.01-1.761-2.2-1.733-4.891&#10;&#9;&#9;&#9;&#9;&#9;c0.028-2.691,0.849-4.864,1.835-4.854C591.195,126.208,591.971,128.398,591.943,131.089z"/>
          <path style="fill:#583C1C;" d="M606.984,138.639l-0.172-14.287c0,0-6.325-3.816-6.479-11.563s-10.138-10.863-10.138-10.863&#10;&#9;&#9;&#9;&#9;&#9;s-9.929,7.589-16.643,6.692c-6.715-0.897-9.977-12.625-9.977-12.625l3.786,0.58c0,0-2.493-12.479,7.127-14.426&#10;&#9;&#9;&#9;&#9;&#9;c10.278-2.08,12.821-7.276,12.821-7.276s1.459,4.652,0.427,5.703c0,0,15.506-0.677,21.674,8.764&#10;&#9;&#9;&#9;&#9;&#9;c6.168,9.442,9.633,5.744,9.633,5.744s-1.461,4.262-3.466,3.697c-2.005-0.565,8.522,11.836,1.453,26.938&#10;&#9;&#9;&#9;&#9;&#9;C609.962,140.819,606.984,138.639,606.984,138.639z"/>
          <g>
            <path style="fill:#E3A99A;" d="M608.79,133.417l-0.392,8.879c7.457,3.033,13.997-4.102,15.398-10.107&#10;&#9;&#9;&#9;&#9;&#9;&#9;c0.701-3.029,0.095-5.762-2.342-6.801c-5.155-2.159-9.325,2.723-11.341,5.782C609.258,132.452,608.79,133.417,608.79,133.417z"/>
            <path style="fill:#CA7E86;" d="M618.905,130.486c-5.295-0.302-8.539,4.287-8.676,4.483c-0.139,0.2-0.087,0.473,0.114,0.61&#10;&#9;&#9;&#9;&#9;&#9;&#9;c0.07,0.049,0.151,0.074,0.231,0.077c0.147,0.007,0.294-0.06,0.384-0.19c0.019-0.027,1.233-1.74,3.307-2.948&#10;&#9;&#9;&#9;&#9;&#9;&#9;c1.774,1.263,0.701,4.284,0.689,4.315c-0.084,0.227,0.033,0.48,0.263,0.564c0.044,0.016,0.09,0.025,0.134,0.027&#10;&#9;&#9;&#9;&#9;&#9;&#9;c0.188,0.008,0.367-0.102,0.434-0.286c0.055-0.148,1.184-3.326-0.667-5.055c1.041-0.472,2.246-0.787,3.595-0.729&#10;&#9;&#9;&#9;&#9;&#9;&#9;c0.045,0.002,0.091,0.005,0.136,0.008c0.216,0.047,0.454-0.169,0.469-0.411C619.335,130.71,619.15,130.501,618.905,130.486z"/>
          </g>
          <g>
            <g>
              <path style="fill:#CA7E86;" d="M592.271,138.85c0.052,0.434,1.171,0.661,2.5,0.506c1.329-0.154,2.365-0.632,2.314-1.066&#10;&#9;&#9;&#9;&#9;&#9;&#9;&#9;c-0.051-0.434-1.171-0.661-2.5-0.506C593.256,137.938,592.219,138.416,592.271,138.85z"/>
              <path style="fill:#CA7E86;" d="M591.979,141.439c0.073-0.431,1.202-0.603,2.522-0.383c1.32,0.219,2.331,0.746,2.259,1.177&#10;&#9;&#9;&#9;&#9;&#9;&#9;&#9;c-0.073,0.431-1.202,0.603-2.522,0.384C592.917,142.397,591.906,141.87,591.979,141.439z"/>
            </g>
            <g>
              <path style="fill:#CA7E86;" d="M563.749,140.697c-0.051-0.434-1.171-0.661-2.5-0.506c-1.329,0.154-2.365,0.632-2.314,1.066&#10;&#9;&#9;&#9;&#9;&#9;&#9;&#9;c0.051,0.434,1.171,0.66,2.5,0.506C562.764,141.608,563.801,141.131,563.749,140.697z"/>
              <path style="fill:#CA7E86;" d="M564.041,138.107c-0.073,0.431-1.202,0.603-2.522,0.384c-1.32-0.219-2.331-0.747-2.258-1.178&#10;&#9;&#9;&#9;&#9;&#9;&#9;&#9;c0.073-0.431,1.202-0.603,2.522-0.383C563.103,137.149,564.114,137.676,564.041,138.107z"/>
            </g>
          </g>
          <g>
            <path style="fill:#CA7E86;" d="M575.748,145.189c-0.055,0.003-0.111,0.002-0.167,0c-0.688-0.03-2.325-0.541-2.673-4.617&#10;&#9;&#9;&#9;&#9;&#9;&#9;c-0.57-6.671,0.361-10.412,0.402-10.568c0.061-0.242,0.309-0.39,0.554-0.327c0.243,0.061,0.392,0.307,0.331,0.549&#10;&#9;&#9;&#9;&#9;&#9;&#9;c-0.01,0.036-0.932,3.767-0.376,10.269c0.233,2.746,1.084,3.757,1.804,3.789c1.053,0.06,2.56-1.788,3.097-4.836&#10;&#9;&#9;&#9;&#9;&#9;&#9;c0.044-0.245,0.282-0.409,0.528-0.367c0.248,0.043,0.415,0.278,0.371,0.524C579.052,142.813,577.442,145.117,575.748,145.189z"/>
          </g>
        </g>
        <g>
          <path style="fill:#FFFFFF;" d="M675.238,185.377c0,0-12.646,5.397-23.544,0.939c-0.204-0.082-0.404-0.171-0.608-0.26&#10;&#9;&#9;&#9;&#9;&#9;c0,0-9.042-20.163-4.065-45.942c0.021-0.122,0.046-0.249,0.071-0.371c0,0,10.27,3.055,23.011-2.713&#10;&#9;&#9;&#9;&#9;&#9;C670.103,137.03,671.626,176.728,675.238,185.377z"/>
          <g>
            <path style="fill:#FFFFFF;" d="M666.896,138.529c0.018,0.172,0.032,0.313,0.046,0.418l1.238-0.165&#10;&#9;&#9;&#9;&#9;&#9;&#9;c-0.013-0.096-0.026-0.224-0.042-0.381c-0.232-2.254-0.805-4.736-2.036-6.923l-1.112,0.536&#10;&#9;&#9;&#9;&#9;&#9;&#9;C665.991,133.765,666.63,135.937,666.896,138.529z"/>
            <path style="fill:#FFFFFF;" d="M651.691,127.428c-0.316-0.28-0.497-0.663-0.459-1.179c-0.318,0.194-0.612,0.413-0.861,0.676&#10;&#9;&#9;&#9;&#9;&#9;&#9;c-1.89,1.992-1.256,5.398-0.746,8.135c0.158,0.849,0.307,1.65,0.358,2.294c0.273,3.459-1.58,4.562-1.659,4.607l0.304,0.545&#10;&#9;&#9;&#9;&#9;&#9;&#9;l0.299,0.548c0.108-0.059,2.64-1.492,2.3-5.799c-0.056-0.709-0.211-1.542-0.375-2.424c-0.458-2.458-1.027-5.517,0.425-7.047&#10;&#9;&#9;&#9;&#9;&#9;&#9;C651.399,127.653,651.539,127.535,651.691,127.428z"/>
          </g>
          <path style="fill:none;stroke:#FFFFFF;stroke-width:1.179;stroke-miterlimit:10;" d="M652.581,185.096&#10;&#9;&#9;&#9;&#9;&#9;c0,0,5.132,2.722,2.635,8.166c-2.497,5.444,2.913,12.125,13.038,9.651c10.125-2.475,1.387-20.539,1.387-20.539&#10;&#9;&#9;&#9;&#9;&#9;S659.239,173.218,652.581,185.096z"/>
          <path style="opacity:0.3;fill:#C9C9C9;" d="M675.238,185.377c0,0-12.646,5.397-23.544,0.939&#10;&#9;&#9;&#9;&#9;&#9;c22.167-9.781,15.659-45.515,15.659-45.515c-8.51,2.847-17.777,0.167-20.332-0.687c0.021-0.122,0.046-0.249,0.071-0.371&#10;&#9;&#9;&#9;&#9;&#9;c0,0,10.27,3.055,23.011-2.713C670.103,137.03,671.626,176.728,675.238,185.377z"/>
          <path style="fill:#DBDBDB;" d="M658.545,145.626c0,0-5.409,16.58,2.635,37.118C661.18,182.745,657.019,151.937,658.545,145.626z&#10;&#9;&#9;&#9;&#9;&#9;"/>
          <path style="fill:#DBDBDB;" d="M651.748,145.255c0,0-5.41,16.58,2.635,37.119C654.384,182.374,650.223,151.565,651.748,145.255z&#10;&#9;&#9;&#9;&#9;&#9;"/>
          <path style="fill:#DBDBDB;" d="M665.48,144.884c0,0-5.409,16.58,2.635,37.119C668.116,182.003,663.955,151.194,665.48,144.884z"/>
        </g>
      </g>
    </g>
    <g>
      <path style="fill:#C2E9F2;" d="M299.02,190.03c0,9.13-1.52,18.68-4.02,28.18c-0.47,1.77-0.97,3.55-1.51,5.32&#10;&#9;&#9;&#9;c-7.16,23.83-19.91,46.81-29.63,61.57c-7.64,11.61-27.26,11.72-27.26,11.72l-42.56-0.03l-18.53-0.01h-2.2l-23.49-0.02h-6.48&#10;&#9;&#9;&#9;l-69.32-0.05L61.5,296.7c0,0-30.07-8.01-41.74-44.04c-17.94-55.37,39.89-69.61,35.19-131.63c-0.18-2.32-0.21-4.57-0.12-6.76&#10;&#9;&#9;&#9;c0.19-4.55,0.95-8.81,2.2-12.8c5.76-18.38,22.02-30.91,42.23-37.71c3.46-1.18,7.05-2.18,10.72-3.01&#10;&#9;&#9;&#9;c27.44-6.23,59.53-3.05,82.33,9.27c35.2,19.02,24.3,51.5,65.69,64.98c9.29,3.03,16.72,7.08,22.57,11.94&#10;&#9;&#9;&#9;c4.08,3.38,7.39,7.16,10.02,11.24c2.59,4.04,4.52,8.39,5.88,12.96c0.72,2.43,1.28,4.93,1.68,7.48c0.22,1.37,0.4,2.75,0.53,4.15&#10;&#9;&#9;&#9;c0.05,0.52,0.1,1.05,0.13,1.57C298.96,186.21,299.02,188.11,299.02,190.03z"/>
      <g>
        <g>
          <g>
            <path style="fill:#FFFFFF;" d="M81.191,187.134c-0.797-1.939-3.832-7.636-7.201-8.303c-7.25-1.44-8.942-8.192-8.824-11.561&#10;&#9;&#9;&#9;&#9;&#9;&#9;l4.545,0.157l-2.273-0.078l2.274,0.066c-0.015,0.604,0.021,5.926,5.161,6.955c6.396,1.26,10.124,10.05,10.529,11.048&#10;&#9;&#9;&#9;&#9;&#9;&#9;L81.191,187.134z"/>
          </g>
          <g>
            <path style="fill:#FFFFFF;" d="M70.386,204.848c-1.454-1.511-6.369-5.69-9.749-5.074c-7.264,1.325-11.325-4.33-12.456-7.508&#10;&#9;&#9;&#9;&#9;&#9;&#9;l4.286-1.524l-2.143,0.762l2.139-0.774c0.208,0.567,2.192,5.513,7.356,4.57c6.387-1.167,13.109,5.625,13.855,6.404&#10;&#9;&#9;&#9;&#9;&#9;&#9;L70.386,204.848z"/>
          </g>
          <g>
            <path style="fill:#FFFFFF;" d="M47.922,225.432c-3.333-0.334-6.1-2.243-7.504-3.743l3.312-3.119&#10;&#9;&#9;&#9;&#9;&#9;&#9;c0.42,0.438,4.214,4.182,8.57,1.254c5.392-3.622,14.265-0.077,15.258,0.34l-1.758,4.196c-1.934-0.806-8.111-2.673-10.962-0.76&#10;&#9;&#9;&#9;&#9;&#9;&#9;C52.439,225.212,50.064,225.647,47.922,225.432z"/>
          </g>
        </g>
      </g>
      <g>
        <path style="opacity:0.9;fill:#EAAC21;" d="M125.33,82.92h-0.17c-1.39-0.66-11.57-2.99-12.25-5.75&#10;&#9;&#9;&#9;&#9;c-0.35-1.39,11.11-4.33,11.11-4.33s-11.68-2.07-12.81-2.45c-1.13-0.37,9.04-6.4,9.04-6.4s-10.54,0-12.42-0.38&#10;&#9;&#9;&#9;&#9;c-0.75-0.15,0.44-1.4,2.15-2.86c-3.67,0.83-7.26,1.83-10.72,3.01c-20.21,6.8-36.47,19.33-42.23,37.71&#10;&#9;&#9;&#9;&#9;c-1.25,3.99-2.01,8.25-2.2,12.8c2.36-1.36,4.55-2.57,5.17-2.73c1.51-0.38-3.2,10.92-3.2,10.92s7.72-8.29,8.47-8.85&#10;&#9;&#9;&#9;&#9;c0.76-0.56-1.69,15.63-1.69,15.63s7.72-11.86,9.22-13.18c1.43-1.25,5.1,13.04,5.48,14.55v0.21c0,0,0.01-0.04,0.02-0.1&#10;&#9;&#9;&#9;&#9;c0.01,0.01,0.01,0.02,0.01,0.02v-0.05c0.4-1.47,4.36-15.88,5.79-14.63c1.51,1.32,9.23,13.18,9.23,13.18s-2.45-16.19-1.7-15.63&#10;&#9;&#9;&#9;&#9;c0.76,0.56,8.48,8.85,8.48,8.85s-4.71-11.3-3.2-10.92c1.5,0.38,12.23,6.96,12.23,6.96s-7.9-11.29-6.21-11.29&#10;&#9;&#9;&#9;&#9;s13.37,2.82,13.37,2.82s-10.36-7.34-8.47-7.72c1.88-0.37,12.42-0.37,12.42-0.37s-10.17-6.03-9.04-6.4&#10;&#9;&#9;&#9;&#9;c1.13-0.38,12.81-2.45,12.81-2.45s-11.31-2.91-11.11-4.33c0.52-3.78,10.86-5.09,12.25-5.75h0.17c0,0-0.03-0.02-0.08-0.05&#10;&#9;&#9;&#9;&#9;C125.3,82.94,125.33,82.92,125.33,82.92z"/>
        <path style="fill:#FFCC4A;" d="M106.77,82.96c0,15.64-12.68,28.32-28.32,28.32c-8.56,0-16.23-3.8-21.42-9.81&#10;&#9;&#9;&#9;&#9;c5.76-18.38,22.02-30.91,42.23-37.71C103.92,68.8,106.77,75.55,106.77,82.96z"/>
      </g>
      <g>
        <path style="fill:#5DB589;" d="M298.68,182.77c-5.75,3.85-10.41,9.87-12.69,15.38c-0.03,0.06-0.04,0.11-0.07,0.17&#10;&#9;&#9;&#9;&#9;c-0.01,0.04-0.03,0.09-0.04,0.13c-0.38,0.89-0.67,1.79-0.9,2.65l-0.31-1.27l-1.81-7.37c-2.84,2.59-3.2,10.9-3.2,10.9l-2.05-4.3&#10;&#9;&#9;&#9;&#9;c-2.6,3.78-3.76,12.9-3.98,15c-0.05,0.28-0.06,0.45-0.06,0.45l-0.09-0.26l-2.52-6.88c-2.88,5.03-4.65,10.33-4.57,16.07&#10;&#9;&#9;&#9;&#9;c0,0.48,0.03,0.95,0.06,1.43c0,0-0.18-0.31-0.48-0.89c-0.01-0.03-0.03-0.08-0.06-0.12c-1.77-3.63-6.99-16.46,0.48-29.33&#10;&#9;&#9;&#9;&#9;c1.82-3.12,4.72-6.04,8.13-8.68c0.37-0.3,0.74-0.58,1.13-0.87l1.01-3.04c-3.63-0.22-8.72,6.86-9.03,7.3l1.06-4.82&#10;&#9;&#9;&#9;&#9;c-3.91,0.59-8.95,7.51-8.95,7.51l0.7-4.85c-4.8,1.92-11.79,10.38-12.23,10.9l1.82-7.57l-8.84,10.88l1.11-5.95l-6.09,7.48&#10;&#9;&#9;&#9;&#9;c0,0-0.02-0.25,0-0.73v-0.01c0.09-3.15,1.53-15.68,18.05-27.28c13.73-9.65,26.59-7.82,32.72-6.05c-0.03-0.05-0.06-0.09-0.11-0.12&#10;&#9;&#9;&#9;&#9;c-3.03-3.67-9.3-2.75-9.3-2.75l4.28-3.63c-3.82-2-12.77,1.71-13.22,1.89l3.45-3.67c-4.39-1.38-12.77,1.92-13.2,2.08l3.03-3.85&#10;&#9;&#9;&#9;&#9;c-6.29-0.73-18.4,3.43-18.4,3.43l5.6-5.69l-14.72,5.1l4.05-4.62l-10.13,3.46c0.05-0.07,0.26-0.36,0.66-0.82&#10;&#9;&#9;&#9;&#9;c2.5-2.88,12.25-12.2,34.98-14.06c6.46-0.53,11.97,0.13,16.62,1.44c4.08,3.38,7.39,7.16,10.02,11.24&#10;&#9;&#9;&#9;&#9;c2.59,4.04,4.52,8.39,5.88,12.96c0.72,2.43,1.28,4.93,1.68,7.48C298.37,179.99,298.55,181.37,298.68,182.77z"/>
        <path style="fill:#5DB589;" d="M299.02,190.03c0,9.13-1.52,18.68-4.02,28.18c-0.47,1.77-0.97,3.55-1.51,5.32&#10;&#9;&#9;&#9;&#9;c-2.96-4.64-5.44-11.03-4.64-18.92c0.81-8.01,5.55-15.19,9.96-20.27C298.96,186.21,299.02,188.11,299.02,190.03z"/>
        <path style="fill:#5DB589;" d="M303.61,219.81l-0.04-0.03l0.01-0.07C303.6,219.75,303.61,219.8,303.61,219.81z"/>
        <path style="opacity:0.3;fill:#5DB589;" d="M298.15,178.62c-10.92,1.75-32.01,9.74-32.24,45.24v0.21c0,0,0.03-0.03,0.06-0.09&#10;&#9;&#9;&#9;&#9;c0.09-0.11,0.22-0.29,0.42-0.54c-0.08-5.74,1.69-11.04,4.57-16.07l2.52,6.88c0.04-0.06,0.09-0.12,0.15-0.19&#10;&#9;&#9;&#9;&#9;c0.22-2.1,1.38-11.22,3.98-15l2.05,4.3c0,0,0.36-8.31,3.2-10.9l1.81,7.37l0.31,1.27c0.23-0.86,0.52-1.76,0.9-2.65&#10;&#9;&#9;&#9;&#9;c0.01-0.04,0.03-0.09,0.04-0.13c0.01-0.08,0.04-0.14,0.07-0.17c2.28-5.51,6.94-11.53,12.69-15.38&#10;&#9;&#9;&#9;&#9;C298.55,181.37,298.37,179.99,298.15,178.62z M290.59,158.18c-2.82-2.17-6.85-4.33-12.59-6.21c-18.66-6.11-40.9,3.5-49.03,7.59&#10;&#9;&#9;&#9;&#9;c-0.4,0.46-0.61,0.75-0.66,0.82l10.13-3.46l-4.05,4.62l14.72-5.1l-5.6,5.69c0,0,12.11-4.16,18.4-3.43l-3.03,3.85&#10;&#9;&#9;&#9;&#9;c0.43-0.16,8.81-3.46,13.2-2.08l-3.45,3.67c0.45-0.18,9.4-3.89,13.22-1.89l-4.28,3.63c0,0,6.27-0.92,9.3,2.75&#10;&#9;&#9;&#9;&#9;c5.23,1.19,8.75,2.25,9.6,2.51C295.11,166.57,293.18,162.22,290.59,158.18z M274.52,185.85c11.03-7.5,17.23-8.43,17.23-8.43&#10;&#9;&#9;&#9;&#9;s-4.09-6.69-26.76-1.67c-16.84,3.73-28.1,24.99-28.78,26.33v0.01c-0.02,0.48,0,0.73,0,0.73l6.09-7.48l-1.11,5.95l8.84-10.88&#10;&#9;&#9;&#9;&#9;l-1.82,7.57c0.44-0.52,7.43-8.98,12.23-10.9l-0.7,4.85c0,0,5.04-6.92,8.95-7.51l-1.06,4.82c0.31-0.44,5.4-7.52,9.03-7.3&#10;&#9;&#9;&#9;&#9;l-1.01,3.04C275.26,185.27,274.89,185.55,274.52,185.85z M294.16,202.14c-1.08,5.64-0.43,11.23,0.84,16.07&#10;&#9;&#9;&#9;&#9;c2.5-9.5,4.02-19.05,4.02-28.18C296.89,193.38,295.06,197.42,294.16,202.14z"/>
      </g>
      <g>
        <g>
          <path style="fill:#E3A99A;" d="M194.04,296.79l17.49-20.5c0,0,0,0,0.01,0l2.12-2.49c0,0-1.33-5.79-7.33-10.71v-0.01h-0.01&#10;&#9;&#9;&#9;&#9;&#9;c-0.31-0.25-0.63-0.51-0.97-0.75c-0.25-0.19-0.52-0.38-0.79-0.56c-0.03-0.03-0.07-0.06-0.11-0.08c-0.58-0.4-1.2-0.78-1.86-1.15&#10;&#9;&#9;&#9;&#9;&#9;c-0.46-0.26-0.93-0.51-1.42-0.75c-1.96-0.96-4.22-1.79-6.82-2.4l-1.62,2.04l-14.04,17.61l-15.42,19.35l10.04,0.39L194.04,296.79&#10;&#9;&#9;&#9;&#9;&#9;z"/>
          <path style="fill:#D49788;" d="M238.39,254.88c-0.06,0.75-0.18,1.32-0.34,1.67c-1.54,3.22-22.78,22.27-30.12,19.82&#10;&#9;&#9;&#9;&#9;&#9;c-7.33-2.44-6.17-10.68-6.17-10.68l6.17-38.36c0,0,8.37-3.48,18.54,0C235.54,230.43,238.88,248.69,238.39,254.88z"/>
          <path style="fill:#E3A99A;" d="M238.39,254.88c-0.06,0.75-0.18,1.32-0.34,1.67c-1.54,3.22-22.78,22.27-30.12,19.82&#10;&#9;&#9;&#9;&#9;&#9;c-7.33-2.44-7.597-9.703-7.597-9.703c7.63-13.44,33.547-12.547,33.547-12.547C235.46,254.15,236.98,254.42,238.39,254.88z"/>
          <path style="fill:#E3A99A;" d="M201.755,265.688c-2.317,1.545-5.02-0.257-5.02-0.257c-10.555-9.01-2.735-31.931,4.515-35.056&#10;&#9;&#9;&#9;&#9;&#9;c2.802-1.208,3.5-10.875,3.5-10.875c5.5-0.625,3.184,7.83,3.184,7.83C209.668,242.725,209.225,256.623,201.755,265.688z"/>
          <g>
            <path style="fill:#FFFFFF;" d="M222.434,257.178l-19.998-4.096l5.668-45.455c9.404-1.466,18.4,0.376,26.987,5.527&#10;&#9;&#9;&#9;&#9;&#9;&#9;L222.434,257.178z"/>
            <path style="fill:#DBDBDB;" d="M235.089,213.152l-1.048,3.633c-6.949-4.118-14.186-6.061-21.687-5.825&#10;&#9;&#9;&#9;&#9;&#9;&#9;c-1.56,0.033-3.13,0.172-4.708,0.407l0.463-3.741c1.393-0.225,2.782-0.365,4.153-0.424&#10;&#9;&#9;&#9;&#9;&#9;&#9;C220.177,206.784,227.782,208.766,235.089,213.152z"/>
            <path style="fill:#FFFFFF;" d="M234.041,216.785L222.43,257.18l-19.99-4.094l5.206-41.719c1.578-0.235,3.148-0.375,4.708-0.407&#10;&#9;&#9;&#9;&#9;&#9;&#9;C219.856,210.724,227.092,212.667,234.041,216.785z"/>
            <rect x="206.944" y="249.342" transform="matrix(0.2006 -0.9797 0.9797 0.2006 -85.0675 414.6429)" style="fill:#DB6024;" width="9.215" height="20.215"/>
            <rect x="206.141" y="253.965" transform="matrix(0.9797 0.2006 -0.2006 0.9797 56.0902 -36.3303)" style="opacity:0.5;fill:#FFFFFF;" width="2.304" height="9.22"/>
            <rect x="210.693" y="255.335" transform="matrix(0.9797 0.2006 -0.2006 0.9797 56.5061 -37.6473)" style="opacity:0.5;fill:#FFFFFF;" width="6.581" height="9.22"/>
            <g>
              <path style="fill:#E7AD4B;" d="M221.057,231.615c-0.5,2.439-2.882,4.011-5.321,3.512c-2.439-0.5-4.011-2.882-3.512-5.321&#10;&#9;&#9;&#9;&#9;&#9;&#9;&#9;c0.499-2.439,2.882-4.011,5.321-3.512C219.984,226.793,221.557,229.176,221.057,231.615z"/>
              <polygon style="fill:#E7AD4B;" points="219.1,225.649 216.773,225.158 218.714,221.72 &#9;&#9;&#9;&#9;&#9;&#9;"/>
              <polygon style="fill:#E7AD4B;" points="221.264,227.55 219.511,225.944 222.93,223.971 &#9;&#9;&#9;&#9;&#9;&#9;"/>
              <polygon style="fill:#E7AD4B;" points="222.176,230.956 221.755,228.616 225.671,229.119 &#9;&#9;&#9;&#9;&#9;&#9;"/>
              <polygon style="fill:#E7AD4B;" points="220.836,234.218 221.92,232.101 224.729,234.875 &#9;&#9;&#9;&#9;&#9;&#9;"/>
              <polygon style="fill:#E7AD4B;" points="217.794,235.999 219.939,234.973 220.491,238.883 &#9;&#9;&#9;&#9;&#9;&#9;"/>
              <polygon style="fill:#E7AD4B;" points="214.294,235.572 216.622,236.056 214.691,239.5 &#9;&#9;&#9;&#9;&#9;&#9;"/>
              <polygon style="fill:#E7AD4B;" points="211.769,233.11 213.327,234.907 209.704,236.475 &#9;&#9;&#9;&#9;&#9;&#9;"/>
              <polygon style="fill:#E7AD4B;" points="211.254,229.622 211.404,231.995 207.572,231.046 &#9;&#9;&#9;&#9;&#9;&#9;"/>
              <polygon style="fill:#E7AD4B;" points="212.959,226.536 211.639,228.514 209.167,225.436 &#9;&#9;&#9;&#9;&#9;&#9;"/>
              <polygon style="fill:#E7AD4B;" points="216.186,225.115 213.937,225.888 213.837,221.941 &#9;&#9;&#9;&#9;&#9;&#9;"/>
            </g>
            <path style="opacity:0.5;fill:#C9C9C9;" d="M200.725,261.935l1.808-8.83l-0.093-0.019l5.206-41.719l0.463-3.741&#10;&#9;&#9;&#9;&#9;&#9;&#9;c1.393-0.225,2.782-0.365,4.153-0.424c0.032,0.079,0.055,0.145,0.088,0.224c0,0-0.011,1.297,0.005,3.533&#10;&#9;&#9;&#9;&#9;&#9;&#9;c0.052,8.458,0.527,30.258,3.802,44.729c0.021,0.077,0.032,0.14,0.053,0.217c0.931,4.05,2.078,7.514,3.515,9.92&#10;&#9;&#9;&#9;&#9;&#9;&#9;L200.725,261.935z"/>
          </g>
          <path style="fill:#E3A99A;" d="M227.37,229.776c0,0-0.579-5.503,1.834-5.406c2.414,0.096,4.151,5.889,4.151,5.889&#10;&#9;&#9;&#9;&#9;&#9;s1.448-0.193,2.317,1.062c0.869,1.255,4.827,8.013,4.923,9.268c0.097,1.255-1.545,1.931-1.545,1.931s1.931,3.572,1.931,5.31&#10;&#9;&#9;&#9;&#9;&#9;c0,1.738-2.8,3.089-2.8,3.089s1.255,2.22,0.772,4.055c-0.483,1.834-2.124,2.317-3.282,1.738c-1.159-0.579-4.055-5.31-4.055-5.31&#10;&#9;&#9;&#9;&#9;&#9;s-6.466-0.631-7.627-2.703c-1.352-2.413,1.834-3.186,1.834-3.186l7.53,0.096c0,0-9.003-3.468-9.075-5.696&#10;&#9;&#9;&#9;&#9;&#9;c-0.096-2.993,2.22-2.51,2.22-2.51l6.565,0.193c0,0-8.013-2.317-8.302-4.634C224.474,230.644,227.37,229.776,227.37,229.776z"/>
        </g>
        <g>
          <g>
            <path style="fill:#E5B7AC;" d="M173.84,171.6c-0.3,0.39-0.58,0.78-0.86,1.16c-0.1,0.14-0.19,0.27-0.27,0.4&#10;&#9;&#9;&#9;&#9;&#9;&#9;c-2.33,3.25-4.43,6.78-6.21,10.74c-0.76,1.69-1.46,3.46-2.09,5.32c-0.09,0.27-0.18,0.54-0.27,0.82&#10;&#9;&#9;&#9;&#9;&#9;&#9;c-0.27,0.81-0.52,1.64-0.75,2.5c0,0,0,0-0.01,0c0,0.01,0,0.01,0,0.02c-0.2,0.72-0.39,1.46-0.58,2.21c0,0-3.24,4.99-18.76,1.25&#10;&#9;&#9;&#9;&#9;&#9;&#9;c-15.53-3.75-17.61-23.79-17.61-23.79c4.77-4.28,8.64-10.07,12.08-16.54c0.77-1.43,1.51-2.89,2.23-4.38v-0.01&#10;&#9;&#9;&#9;&#9;&#9;&#9;c0.13-0.27,0.26-0.54,0.39-0.8l4.9-11.21l1.69-3.87l9.79,20.74l16.3,1.29v4.36l0.01,1.35L173.84,171.6z"/>
            <path style="opacity:0.5;fill:#CA7E86;" d="M164.14,190.04c-0.27,0.81-0.52,1.64-0.75,2.5c0,0,0,0-0.01,0&#10;&#9;&#9;&#9;&#9;&#9;&#9;c-7.213-3.04-9.005-4.54-12.047-9.873C155.387,186.1,159.592,188.845,164.14,190.04z"/>
            <path style="opacity:0.5;fill:#CA7E86;" d="M173.84,171.6c-0.3,0.39-0.58,0.78-0.86,1.16c-0.1,0.14-0.19,0.27-0.27,0.4&#10;&#9;&#9;&#9;&#9;&#9;&#9;c-2.33,3.25-4.43,6.78-6.21,10.74c-8.9-4.98-22.81-14.12-27.99-28.21c-0.01-0.02-0.01-0.04-0.02-0.06l2.25-4.32v-0.01&#10;&#9;&#9;&#9;&#9;&#9;&#9;l5.21-12.19l0.08,0.18l10.13,21.45l17,1.35l0.66,1.07L173.84,171.6z"/>
            <path style="fill:#E5B7AC;" d="M144.104,133.105c-0.981,5.54-1.233,12.526,1.147,19.625c0,0,12.465,21.377,28.549,28.453&#10;&#9;&#9;&#9;&#9;&#9;&#9;c7.316,2.934,15.65-4.235,21.089-15.386c0.143-0.28,0.291-0.582,0.419-0.889c0.006-0.021,0.011-0.042,0.011-0.042&#10;&#9;&#9;&#9;&#9;&#9;&#9;c0.088-0.158,0.15-0.301,0.216-0.465c0.027-0.016,0.033-0.037,0.033-0.037c2.61-5.764,4.452-12.485,5.018-19.365&#10;&#9;&#9;&#9;&#9;&#9;&#9;c1.663-19.921-7.367-37.125-20.449-39.94l-0.022-0.006c0,0-19.763-6.763-32.488,16.662&#10;&#9;&#9;&#9;&#9;&#9;&#9;C147.627,121.714,145.302,126.326,144.104,133.105z"/>
            <path style="fill:#383838;" d="M172.166,143.934c-0.497,3.167-1.671,5.613-2.623,5.463c-0.952-0.149-1.32-2.837-0.823-6.004&#10;&#9;&#9;&#9;&#9;&#9;&#9;c0.497-3.166,1.671-5.613,2.623-5.463C172.294,138.079,172.663,140.767,172.166,143.934z"/>
            <path style="fill:#383838;" d="M192.583,146.79c-0.467,2.98-1.532,5.287-2.378,5.155c-0.846-0.133-1.152-2.656-0.684-5.635&#10;&#9;&#9;&#9;&#9;&#9;&#9;c0.467-2.98,1.532-5.288,2.377-5.155C192.744,141.287,193.05,143.81,192.583,146.79z"/>
            <g>
              <path style="fill:#E5B7AC;" d="M147.345,144.686l-0.783,9.423c-8.208,2.206-14.093-6.196-14.751-12.72&#10;&#9;&#9;&#9;&#9;&#9;&#9;&#9;c-0.327-3.29,0.675-6.094,3.364-6.865c5.683-1.59,9.39,4.118,11.088,7.615C146.985,143.606,147.345,144.686,147.345,144.686z"/>
              <path style="opacity:0.5;fill:#CA7E86;" d="M146.263,142.139l-0.936-0.246c0,0-2.028-3.131-6.919-3.613&#10;&#9;&#9;&#9;&#9;&#9;&#9;&#9;c-4.892-0.481-6.596,3.109-6.596,3.109c-0.327-3.29,0.675-6.094,3.364-6.865C140.858,132.934,144.565,138.642,146.263,142.139&#10;&#9;&#9;&#9;&#9;&#9;&#9;&#9;z"/>
              <path style="fill:#CA7E86;" d="M137.156,140.244c5.58,0.388,8.358,5.663,8.474,5.889c0.118,0.229,0.028,0.511-0.201,0.629&#10;&#9;&#9;&#9;&#9;&#9;&#9;&#9;c-0.08,0.042-0.168,0.058-0.252,0.051c-0.155-0.013-0.3-0.103-0.376-0.252c-0.017-0.031-1.056-2.001-3.064-3.552&#10;&#9;&#9;&#9;&#9;&#9;&#9;&#9;c-2.025,1.096-1.309,4.428-1.3,4.463c0.057,0.251-0.099,0.502-0.35,0.56c-0.049,0.012-0.098,0.015-0.144,0.011&#10;&#9;&#9;&#9;&#9;&#9;&#9;&#9;c-0.197-0.016-0.369-0.157-0.416-0.36c-0.038-0.163-0.791-3.668,1.377-5.246c-1.026-0.637-2.244-1.131-3.664-1.249&#10;&#9;&#9;&#9;&#9;&#9;&#9;&#9;c-0.047-0.004-0.095-0.007-0.144-0.01c-0.233,0.021-0.453-0.239-0.436-0.497C136.676,140.423,136.898,140.227,137.156,140.244&#10;&#9;&#9;&#9;&#9;&#9;&#9;&#9;z"/>
            </g>
            <g>
              <g>
                <path style="fill:#CA7E86;" d="M163.704,150.146c-0.101,0.44-1.265,0.55-2.602,0.245c-1.337-0.305-2.339-0.909-2.238-1.349&#10;&#9;&#9;&#9;&#9;&#9;&#9;&#9;&#9;c0.1-0.44,1.265-0.55,2.602-0.245C162.802,149.101,163.804,149.706,163.704,150.146z"/>
                <path style="fill:#CA7E86;" d="M163.714,152.837c-0.026-0.451-1.157-0.751-2.526-0.671c-1.368,0.08-2.456,0.51-2.43,0.961&#10;&#9;&#9;&#9;&#9;&#9;&#9;&#9;&#9;c0.027,0.451,1.157,0.751,2.526,0.671C162.653,153.719,163.741,153.288,163.714,152.837z"/>
              </g>
              <g>
                <path style="fill:#CA7E86;" d="M196.424,155.553c0.1-0.44,1.265-0.55,2.601-0.245c1.337,0.305,2.339,0.909,2.238,1.349&#10;&#9;&#9;&#9;&#9;&#9;&#9;&#9;&#9;c-0.1,0.44-1.265,0.55-2.601,0.245C197.326,156.597,196.324,155.993,196.424,155.553z"/>
                <path style="fill:#CA7E86;" d="M196.413,152.862c0.027,0.451,1.157,0.751,2.526,0.671c1.368-0.08,2.456-0.511,2.43-0.962&#10;&#9;&#9;&#9;&#9;&#9;&#9;&#9;&#9;c-0.026-0.45-1.157-0.751-2.525-0.671C197.474,151.98,196.387,152.411,196.413,152.862z"/>
              </g>
            </g>
            <g>
              <path style="fill:#CA7E86;" d="M181.869,157.925c0.056,0.005,0.113,0.006,0.171,0.007c0.705-0.003,2.402-0.464,2.925-4.656&#10;&#9;&#9;&#9;&#9;&#9;&#9;&#9;c0.856-6.863,0.058-10.763,0.022-10.925c-0.052-0.252-0.3-0.415-0.553-0.36c-0.252,0.053-0.413,0.301-0.361,0.553&#10;&#9;&#9;&#9;&#9;&#9;&#9;&#9;c0.009,0.038,0.799,3.927-0.037,10.616c-0.352,2.825-1.264,3.834-2.001,3.838c-1.08,0.019-2.546-1.95-2.971-5.118&#10;&#9;&#9;&#9;&#9;&#9;&#9;&#9;c-0.035-0.255-0.271-0.434-0.525-0.401c-0.256,0.034-0.436,0.27-0.401,0.526C178.584,155.337,180.137,157.781,181.869,157.925&#10;&#9;&#9;&#9;&#9;&#9;&#9;&#9;z"/>
            </g>
            <g>
              <path style="fill:#66362B;" d="M200.521,135.469c-0.348-0.385-3.851,0.685-6.063-0.217c-1.392-0.568-2.48-1.78-3.235-3.604&#10;&#9;&#9;&#9;&#9;&#9;&#9;&#9;c-0.262-0.636-0.991-0.937-1.627-0.673c-0.635,0.264-0.937,0.992-0.673,1.627c1.025,2.471,2.581,4.142,4.623,4.967&#10;&#9;&#9;&#9;&#9;&#9;&#9;&#9;C196.762,138.865,200.609,135.566,200.521,135.469z"/>
            </g>
            <g>
              <path style="fill:#66362B;" d="M164.773,131.35c-0.425,0.647,3.829,4.151,7.644,3.325c2.421-0.523,4.462-2.08,6.073-4.63&#10;&#9;&#9;&#9;&#9;&#9;&#9;&#9;c0.413-0.654,0.217-1.52-0.437-1.933c-0.655-0.413-1.522-0.217-1.933,0.437c-1.191,1.888-2.638,3.027-4.297,3.387&#10;&#9;&#9;&#9;&#9;&#9;&#9;&#9;C169.187,132.506,164.858,131.219,164.773,131.35z"/>
            </g>
          </g>
          <g>
            <path style="fill:#CA7E86;" d="M180.762,162.87c4.011,0.495,6.375,2.704,6.51,2.833c0.175,0.168,0.182,0.446,0.014,0.62&#10;&#9;&#9;&#9;&#9;&#9;&#9;c-0.168,0.175-0.447,0.181-0.621,0.015c-0.043-0.041-4.296-3.99-10.972-2.221c-0.234,0.059-0.475-0.077-0.537-0.312&#10;&#9;&#9;&#9;&#9;&#9;&#9;c-0.062-0.235,0.078-0.476,0.313-0.538C177.451,162.743,179.227,162.681,180.762,162.87z"/>
          </g>
          <path style="fill:#66362B;" d="M139.682,101.727c1.435-1.444,2.868-2.115,4.113-2.397c-0.711-0.398-1.465-0.859-2.24-1.383&#10;&#9;&#9;&#9;&#9;&#9;c-3.161-2.135-5.374-4.381-4.946-5.015c0.429-0.636,3.339,0.581,6.5,2.715c1.267,0.857,2.369,1.726,3.222,2.506&#10;&#9;&#9;&#9;&#9;&#9;c-0.213-0.741-0.395-1.582-0.516-2.5c-0.391-2.969-0.035-5.465,0.796-5.574c0.831-0.11,1.821,2.209,2.212,5.178&#10;&#9;&#9;&#9;&#9;&#9;c0.009,0.067,0.012,0.13,0.02,0.196c1.617-3.423,5.078-7.711,12.278-7.403c14.292,0.259,24.034,4.107,30.555,9.277&#10;&#9;&#9;&#9;&#9;&#9;c0.001,0,0.003-0.004,0.003-0.004s18.128,12.952,18.321,24.435c0.193,11.483-24.411,9.244-24.411,9.244s4.577-4.577,6.138-8.323&#10;&#9;&#9;&#9;&#9;&#9;c-0.378,0.28-9.961,4.304-28.54,4.994l7.837-6.866l-12.884,4.955c-0.306,6.643-4.764,10.187-7.793,10.793&#10;&#9;&#9;&#9;&#9;&#9;c0.323,10.443-1.173,17.778-1.173,17.778c-1.765-4.579-2.682-9.141-3.15-13.045c-0.557-1.206-3.568-6.795-9.129-6.778&#10;&#9;&#9;&#9;&#9;&#9;C136.064,130.213,135.773,105.659,139.682,101.727z"/>
          <path style="fill:#66362B;" d="M144.104,133.105c-0.981,5.54-1.233,12.526,1.147,19.625c0,0,12.465,21.377,28.549,28.453&#10;&#9;&#9;&#9;&#9;&#9;c7.316,2.934,15.65-4.235,21.089-15.386c-2.218,4.208-7.154,6.415-9.345,6.353c-2.371-0.065-2.536-3.704-2.536-3.704&#10;&#9;&#9;&#9;&#9;&#9;l-3.582-0.389c0,0-0.474,3.56-5.485,3.835c-5.011,0.276-17.937-10.188-20.714-16.483c-2.782-6.273-2.865-21.199-2.865-21.199&#10;&#9;&#9;&#9;&#9;&#9;L144.104,133.105z"/>
          <path style="fill:#66362B;" d="M182.249,161.826c0,0-6.128-2.703-8.388-0.279c-2.26,2.425-4.554,9.586-2.112,11.092&#10;&#9;&#9;&#9;&#9;&#9;c2.442,1.506-5.933,0.116-5.933,0.116s1.809-10.225,4.403-13.324c1.794-2.14,6.783-3.527,12.311-0.091L182.249,161.826z"/>
          <path style="fill:#66362B;" d="M186.843,173.068c1.104-2.457,2.085-6.624,1.617-8.645c-0.748-3.229-6.211-2.596-6.211-2.596&#10;&#9;&#9;&#9;&#9;&#9;l-0.269-2.63c6.505-0.219,9.153,1.21,9.639,3.96c0.25,1.414-0.271,5.701-0.743,7.877&#10;&#9;&#9;&#9;&#9;&#9;C189.247,171.76,188.425,172.245,186.843,173.068z"/>
        </g>
        <path style="fill:#E5B7AC;" d="M183.57,222.69c-0.83,6.4-1.55,12.9-2.17,19.26c-1.27,12.98-2.13,25.38-2.71,35.09&#10;&#9;&#9;&#9;&#9;c-0.7,11.87-0.95,19.72-0.95,19.72l-2.23,0.02l-1.78,0.01l-0.42-0.01l-23.49-0.02h-6.48l-69.32-0.05&#10;&#9;&#9;&#9;&#9;c-0.34-2.85-0.58-5.78-0.72-8.77c-0.09-1.92-0.14-3.85-0.14-5.81c-0.01-0.31-0.01-0.62-0.01-0.93c0-1.25,0.01-2.51,0.05-3.78&#10;&#9;&#9;&#9;&#9;c0.01-0.64,0.03-1.27,0.05-1.91c0.03-0.99,0.08-1.97,0.13-2.96c0.03-0.48,0.06-0.97,0.09-1.45c0.03-0.59,0.07-1.18,0.11-1.78&#10;&#9;&#9;&#9;&#9;c0.04-0.5,0.07-1,0.12-1.5c0.04-0.5,0.08-1,0.13-1.51c0.03-0.45,0.07-0.9,0.12-1.34c0.05-0.58,0.11-1.15,0.17-1.73&#10;&#9;&#9;&#9;&#9;c0.15-1.47,0.32-2.95,0.51-4.43c0.06-0.5,0.13-1,0.2-1.51c0.04-0.36,0.09-0.72,0.15-1.08c0.09-0.65,0.18-1.29,0.28-1.93&#10;&#9;&#9;&#9;&#9;c0.38-2.58,0.82-5.15,1.3-7.7c0.24-1.25,0.49-2.51,0.75-3.75c0.99-4.74,2.13-9.39,3.41-13.85c0.16-0.59,0.33-1.18,0.51-1.76&#10;&#9;&#9;&#9;&#9;c0.92-3.14,1.91-6.18,2.96-9.1c0.46-1.28,0.93-2.54,1.41-3.77c0.14-0.38,0.29-0.76,0.45-1.14c0.2-0.52,0.41-1.03,0.62-1.54&#10;&#9;&#9;&#9;&#9;c0.32-0.79,0.65-1.57,0.99-2.33c0.2-0.46,0.4-0.92,0.61-1.37c0.1-0.24,0.21-0.48,0.33-0.72c0.21-0.48,0.43-0.95,0.66-1.41&#10;&#9;&#9;&#9;&#9;c0.66-1.4,1.33-2.74,2.03-4.03c0.17-0.33,0.35-0.65,0.52-0.96c0.28-0.52,0.57-1.04,0.87-1.54c0.24-0.41,0.47-0.8,0.71-1.19&#10;&#9;&#9;&#9;&#9;c0.21-0.35,0.42-0.7,0.63-1.04c0.51-0.8,1.01-1.57,1.53-2.3c0.24-0.34,0.48-0.69,0.73-1.02c0.23-0.31,0.46-0.62,0.69-0.92&#10;&#9;&#9;&#9;&#9;c0.17-0.24,0.35-0.46,0.53-0.68c0.21-0.27,0.43-0.53,0.65-0.79c0.39-0.48,0.79-0.94,1.21-1.37c0.21-0.23,0.42-0.46,0.64-0.68&#10;&#9;&#9;&#9;&#9;c0.21-0.22,0.43-0.43,0.64-0.63c0.8-0.77,1.6-1.45,2.4-2.03c0.23-0.17,0.46-0.33,0.69-0.48c0.54-0.36,1.07-0.68,1.61-0.95&#10;&#9;&#9;&#9;&#9;c0.74-0.38,1.47-0.76,2.18-1.14c0.34-0.18,0.68-0.37,1.01-0.55c1.1-0.59,2.15-1.19,3.16-1.78c0.29-0.17,0.57-0.34,0.85-0.51&#10;&#9;&#9;&#9;&#9;c0.74-0.44,1.46-0.88,2.16-1.32c0.28-0.17,0.56-0.35,0.84-0.53c1.06-0.67,2.08-1.34,3.03-2c0.52-0.35,1.03-0.71,1.52-1.06&#10;&#9;&#9;&#9;&#9;c0.58-0.4,1.13-0.8,1.66-1.19c4.88-3.6,8.02-6.59,9.56-8.18c0.64-0.65,1-1.07,1.11-1.19c-0.8,1.08-15.45,21.64,29.51,26.52&#10;&#9;&#9;&#9;&#9;c0.48,0.05,0.96,0.13,1.43,0.22c0.01,0,0.02,0.01,0.02,0.01c0.01-0.01,0.01-0.01,0.01,0c1.06,0.21,2.12,0.52,3.15,0.93&#10;&#9;&#9;&#9;&#9;c0.74,0.29,1.47,0.62,2.19,1C177.86,199.23,185.09,210.93,183.57,222.69z"/>
        <g>
          <path style="opacity:0.3;fill:#CA5B67;" d="M139.33,249c-0.44,15.5-18.83,57.5-60.1,39.27c-2.66-1.18-4.24-3.93-6.08-6.15&#10;&#9;&#9;&#9;&#9;&#9;c-0.13-21.53,4.33-45.25,11.04-63.99c5.86-16.38,13.43-28.95,21.15-32.89c5.94-3.03,10.83-6.1,14.75-8.89&#10;&#9;&#9;&#9;&#9;&#9;c0.58-0.4,1.13-0.8,1.66-1.19c3.41,0.8,6.93,2.65,9.58,6.51C138.67,192.33,118,200.33,120,211S140,225.67,139.33,249z"/>
          <path style="opacity:0.3;fill:#CA5B67;" d="M111,197.5c-8.676,7.809-8.75,29.5-20.5,27.5c-3.67-0.62-5.52-3.38-6.31-6.87&#10;&#9;&#9;&#9;&#9;&#9;c5.86-16.38,13.43-28.95,21.15-32.89C111.28,182.21,123.5,186.25,111,197.5z"/>
          <path style="opacity:0.3;fill:#CA5B67;" d="M122.827,235.584c0.297-14.905-11.788-17.704-17.967-4.1&#10;&#9;&#9;&#9;&#9;&#9;c-0.48,1.056-0.941,2.178-1.376,3.369c-5.248,14.354-17.521,11.922-21.588,25.351c-4.066,13.429,0.516,29.253,16.584,22.583&#10;&#9;&#9;&#9;&#9;&#9;C110.194,277.924,122.437,255.15,122.827,235.584z"/>
        </g>
        <polygon style="opacity:0.6;fill:#CA7E86;" points="143.34,296.76 146.53,236.42 149.82,296.76 &#9;&#9;&#9;"/>
      </g>
    </g>
    <g>
      <path style="fill:#C2E9F2;" d="M506.07,414.75c-2.92,5.83-6.26,11.86-10.01,18.06c-0.86,1.42-1.73,2.84-2.63,4.27&#10;&#9;&#9;&#9;c-5.66,8.95-11.38,18.61-19.39,26.88c-14.72,15.19-29.44,15.27-29.44,15.27l-37.79-0.08l-12.67-0.03l-59.03-0.13l-24.49-0.05&#10;&#9;&#9;&#9;h-0.98l-5.83-0.01l-15.18-0.04c0,0-15.24-2.92-29.13-12.74c-16.69-11.79-27.87-24.79-34.76-37.75c-0.36-0.68-0.71-1.36-1.05-2.05&#10;&#9;&#9;&#9;C212.9,404.68,213.93,383.3,221,368c18.33-39.67,56-15.83,72.5-82c6.28-25.2,20.75-45.68,41.52-55.6&#10;&#9;&#9;&#9;c2.14-1.02,4.34-1.93,6.61-2.72c16.42-5.73,36.24-5.28,58.66,3.78c0.23,0.09,0.45,0.18,0.67,0.27c4.44,1.85,8.2,3.95,11.45,6.27&#10;&#9;&#9;&#9;c27.01,19.14,18.68,52.24,67.59,67c13.17,3.98,23.35,10.23,30.41,18.56C527.08,343.25,526.26,374.54,506.07,414.75z"/>
      <g>
        <path style="fill:#5DB589;" d="M516.6,389.54c-2.59,7.95-6.09,16.37-10.53,25.21c-8.85-5.73-10.74-14.88-10.74-14.88&#10;&#9;&#9;&#9;&#9;s-6.48,5.83-12.3,0.65c-5.83-5.18,1.29-12.3,1.29-12.3c-11-0.64-17.47-3.23-16.18-13.59c0.17-1.32,0.48-2.49,0.9-3.53&#10;&#9;&#9;&#9;&#9;c2.87-7.13,10.75-8.12,10.75-8.12s-8.41-5.18-3.23-14.24c5.08-8.9,20.17-3.44,20.7-3.25c-0.3-0.2-6.97-4.77-0.64-15.52&#10;&#9;&#9;&#9;&#9;c2.88-4.9,8.48-6.34,13.79-6.41C523.41,338.92,525.77,361.34,516.6,389.54z"/>
        <path style="opacity:0.3;fill:#5DB589;" d="M516.6,389.54c-2.59,7.95-6.09,16.37-10.53,25.21c-8.85-5.73-10.74-14.88-10.74-14.88&#10;&#9;&#9;&#9;&#9;s-6.48,5.83-12.3,0.65c-5.83-5.18,1.29-12.3,1.29-12.3c-11-0.64-17.47-3.23-16.18-13.59c0.17-1.32,0.48-2.49,0.9-3.53&#10;&#9;&#9;&#9;&#9;c0.21,1.38,1.54,6.47,9.96,6.9c9.46,0.48,11.397-4.64,11.667-5c-0.1,0.57,0.493,10.24,6.333,10c5.4-0.22,5.33-4.1,5.26-4.87&#10;&#9;&#9;&#9;&#9;C502.37,379.31,503.62,388.07,516.6,389.54z"/>
      </g>
      <path style="fill:#5DB589;" d="M288.63,478.89c0,0-15.24-2.92-29.13-12.74c-16.69-11.79-27.87-24.79-34.76-37.75&#10;&#9;&#9;&#9;c-0.36-0.68-0.71-1.36-1.05-2.05c2.34-1.09,5.05-1.59,8.14-1.02c12.67,2.34,14,11.67,14,11.67s3-4.33,6-4s4.34,7.33,4.34,7.33&#10;&#9;&#9;&#9;s8-4.66,16,0c7.85,4.58,3.06,22.453,2.83,23.003c0.28-0.36,9.462-3.208,12.667,0.333C294,470.667,288.63,478.89,288.63,478.89z"/>
      <g>
        <g>
          <g>
            <g>
              <path style="fill:#383838;" d="M344.078,363.211c0,0,4.987-6.211,22.594-6.375c17.607-0.164,27.147,5.912,27.147,5.912&#10;&#9;&#9;&#9;&#9;&#9;&#9;&#9;l3.714-18.339l-10.673-5.971l-46.502,7.001L344.078,363.211z"/>
              <polygon style="fill:#F2C2B6;" points="340.722,401.802 335.769,408.659 311.758,441.872 311.751,441.771 311.44,433.488 &#10;&#9;&#9;&#9;&#9;&#9;&#9;&#9;310.629,411.859 310.549,409.767 329.788,375.039 339.998,371.39 &#9;&#9;&#9;&#9;&#9;&#9;"/>
              <polygon style="opacity:0.6;fill:#CA7E86;" points="310.549,409.767 311.758,427.75 313.448,404.459 &#9;&#9;&#9;&#9;&#9;&#9;"/>
              <path style="fill:#F2C2B6;" d="M312.316,441.062c-0.174,0.246-0.355,0.485-0.565,0.71c-1.673,1.911-4.294,3.034-7.06,3.237&#10;&#9;&#9;&#9;&#9;&#9;&#9;&#9;c-5.568,0.406-11.73-2.933-12.049-11.165l2.172-65.276l12.925-6.676l2.889,49.969l1.209,20.948L312.316,441.062z"/>
              <path style="opacity:0.6;fill:#CA7E86;" d="M337.101,396.494l-1.332,12.165l-24.011,33.214l-0.007-0.101&#10;&#9;&#9;&#9;&#9;&#9;&#9;&#9;c-1.673,1.911-4.294,3.034-7.06,3.237c7.188-2.896,20.404-27.132,27.58-47.066L337.101,396.494z"/>
              <g>
                <g>
                  <path style="fill:#F2C2B6;" d="M285.678,365.203c-0.144,0.032-0.293,0.049-0.447,0.047&#10;&#9;&#9;&#9;&#9;&#9;&#9;&#9;&#9;&#9;c-6.461-0.097-9.719-5.715-9.855-5.954c-0.52-0.916-0.198-2.079,0.718-2.599c0.911-0.516,2.073-0.199,2.593,0.711&#10;&#9;&#9;&#9;&#9;&#9;&#9;&#9;&#9;&#9;c0.101,0.173,2.36,3.967,6.6,4.03c1.053,0.016,1.893,0.883,1.877,1.934C287.152,364.271,286.518,365.015,285.678,365.203z"/>
                </g>
                <g>
                  <path style="fill:#F2C2B6;" d="M285.803,359.967c-0.26,0.058-0.536,0.063-0.814,0.003&#10;&#9;&#9;&#9;&#9;&#9;&#9;&#9;&#9;&#9;c-5.907-1.263-8.565-10.57-8.848-11.627c-0.273-1.016,0.329-2.06,1.345-2.334c1.014-0.266,2.061,0.329,2.335,1.344&#10;&#9;&#9;&#9;&#9;&#9;&#9;&#9;&#9;&#9;c0.567,2.097,2.879,8.23,5.964,8.89c1.029,0.219,1.685,1.232,1.465,2.261C287.09,359.257,286.507,359.809,285.803,359.967z"/>
                </g>
                <g>
                  <path style="fill:#F2C2B6;" d="M287.302,355.237c-0.612,0.137-1.279-0.03-1.758-0.503&#10;&#9;&#9;&#9;&#9;&#9;&#9;&#9;&#9;&#9;c-3.943-3.893-4.759-11.823-4.792-12.159c-0.103-1.047,0.661-1.983,1.71-2.081c1.047-0.103,1.98,0.662,2.084,1.708&#10;&#9;&#9;&#9;&#9;&#9;&#9;&#9;&#9;&#9;c0.19,1.909,1.222,7.395,3.677,9.82c0.749,0.739,0.757,1.946,0.017,2.694C287.973,354.986,287.646,355.16,287.302,355.237z"/>
                </g>
                <g>
                  <path style="fill:#F2C2B6;" d="M292.257,353.002c-0.755,0.169-1.569-0.135-2.016-0.822&#10;&#9;&#9;&#9;&#9;&#9;&#9;&#9;&#9;&#9;c-1.821-2.806-3.153-9.861-3.299-10.656c-0.189-1.035,0.487-2.018,1.53-2.219c1.035-0.19,2.029,0.495,2.219,1.531&#10;&#9;&#9;&#9;&#9;&#9;&#9;&#9;&#9;&#9;c0.499,2.716,1.685,7.634,2.746,9.269c0.573,0.882,0.322,2.063-0.561,2.636&#10;&#9;&#9;&#9;&#9;&#9;&#9;&#9;&#9;&#9;C292.682,352.867,292.472,352.953,292.257,353.002z"/>
                </g>
                <path style="fill:#F2C2B6;" d="M306.881,354.53l0.8,12.369l-8.8,3.48c-5.005-0.51-9.929-1.921-14.624-5.944&#10;&#9;&#9;&#9;&#9;&#9;&#9;&#9;&#9;c0,0-0.518-7.275,2.558-10.829c1.811-2.083,6.567-3.64,6.567-3.64c1.396,1.26,3.171,2.161,5.092,2.82&#10;&#9;&#9;&#9;&#9;&#9;&#9;&#9;&#9;c0.225,0.076,0.449,0.151,0.673,0.22l3.395,0.841C304.032,354.138,305.513,354.354,306.881,354.53z"/>
                <path style="opacity:0.6;fill:#CA7E86;" d="M302.543,353.848c0,0-4.46,3.175-4.284,8.396c0,0-2.003-4.253,0.597-6.998&#10;&#9;&#9;&#9;&#9;&#9;&#9;&#9;&#9;c0.633-0.668,0.231-1.617-0.381-2.46c0.225,0.076,0.449,0.151,0.673,0.22L302.543,353.848z"/>
                <g>
                  <path style="fill:#F2C2B6;" d="M306.358,363.196c-0.348,0.078-1.792-4.34-2.151-4.473c-0.986-0.369-3.124-1.905-2.755-2.89&#10;&#9;&#9;&#9;&#9;&#9;&#9;&#9;&#9;&#9;l2.994-5.609c0.287-0.538,0.073-1.204-0.468-1.485c-1.53-0.795-2.401-1.984-2.815-3.448&#10;&#9;&#9;&#9;&#9;&#9;&#9;&#9;&#9;&#9;c-0.255-0.905,0.668-1.704,1.52-1.305c1.782,0.834,4.369,1.852,5.7,2.365c0.499,0.192,0.786,0.716,0.681,1.241&#10;&#9;&#9;&#9;&#9;&#9;&#9;&#9;&#9;&#9;C309.064,347.59,309.831,363.068,306.358,363.196z"/>
                </g>
              </g>
            </g>
            <g>
              <polygon style="fill:#F2C2B6;" points="426.702,441.87 397.739,401.804 398.463,371.393 408.675,375.04 427.909,409.769 &#10;&#9;&#9;&#9;&#9;&#9;&#9;&#9;&#9;&#9;&#9;&#9;&#9;&#9;"/>
              <polygon style="opacity:0.6;fill:#CA7E86;" points="427.989,409.902 426.78,427.886 425.09,404.595 &#9;&#9;&#9;&#9;&#9;&#9;"/>
              <path style="fill:#F2C2B6;" d="M426.146,441.06c4.552,6.564,19.182,5.576,19.672-7.216l-2.17-65.279l-12.926-6.673&#10;&#9;&#9;&#9;&#9;&#9;&#9;&#9;L426.146,441.06z"/>
              <path style="opacity:0.6;fill:#CA7E86;" d="M401.296,396.494l1.332,12.165l24.011,33.214l0.007-0.101&#10;&#9;&#9;&#9;&#9;&#9;&#9;&#9;c1.673,1.911,4.294,3.034,7.06,3.237c-7.188-2.896-20.404-27.132-27.58-47.066L401.296,396.494z"/>
              <g>
                <g>
                  <path style="fill:#F2C2B6;" d="M452.782,365.203c0.144,0.032,0.294,0.049,0.447,0.047c6.461-0.097,9.72-5.715,9.855-5.954&#10;&#9;&#9;&#9;&#9;&#9;&#9;&#9;&#9;&#9;c0.52-0.916,0.198-2.079-0.718-2.599c-0.911-0.516-2.073-0.199-2.593,0.711c-0.101,0.173-2.36,3.967-6.6,4.03&#10;&#9;&#9;&#9;&#9;&#9;&#9;&#9;&#9;&#9;c-1.053,0.016-1.893,0.883-1.877,1.934C451.309,364.271,451.943,365.015,452.782,365.203z"/>
                </g>
                <g>
                  <path style="fill:#F2C2B6;" d="M452.658,359.967c0.26,0.058,0.536,0.063,0.814,0.003c5.908-1.263,8.565-10.57,8.848-11.627&#10;&#9;&#9;&#9;&#9;&#9;&#9;&#9;&#9;&#9;c0.273-1.016-0.329-2.06-1.345-2.334c-1.014-0.266-2.061,0.329-2.335,1.344c-0.567,2.097-2.879,8.23-5.964,8.89&#10;&#9;&#9;&#9;&#9;&#9;&#9;&#9;&#9;&#9;c-1.029,0.219-1.685,1.232-1.465,2.261C451.371,359.257,451.954,359.809,452.658,359.967z"/>
                </g>
                <g>
                  <path style="fill:#F2C2B6;" d="M451.159,355.237c0.612,0.137,1.279-0.03,1.758-0.503c3.943-3.893,4.759-11.823,4.792-12.159&#10;&#9;&#9;&#9;&#9;&#9;&#9;&#9;&#9;&#9;c0.102-1.047-0.661-1.983-1.71-2.081c-1.047-0.103-1.98,0.662-2.084,1.708c-0.19,1.909-1.222,7.395-3.677,9.82&#10;&#9;&#9;&#9;&#9;&#9;&#9;&#9;&#9;&#9;c-0.749,0.739-0.757,1.946-0.018,2.694C450.488,354.986,450.815,355.16,451.159,355.237z"/>
                </g>
                <g>
                  <path style="fill:#F2C2B6;" d="M446.203,353.002c0.755,0.169,1.57-0.135,2.016-0.822c1.822-2.806,3.153-9.861,3.299-10.656&#10;&#9;&#9;&#9;&#9;&#9;&#9;&#9;&#9;&#9;c0.189-1.035-0.487-2.018-1.531-2.219c-1.035-0.19-2.029,0.495-2.219,1.531c-0.499,2.716-1.686,7.634-2.747,9.269&#10;&#9;&#9;&#9;&#9;&#9;&#9;&#9;&#9;&#9;c-0.573,0.882-0.322,2.063,0.561,2.636C445.778,352.867,445.988,352.953,446.203,353.002z"/>
                </g>
                <path style="fill:#F2C2B6;" d="M431.58,354.53l-0.8,12.369l8.8,3.48c5.005-0.51,9.929-1.921,14.624-5.944&#10;&#9;&#9;&#9;&#9;&#9;&#9;&#9;&#9;c0,0,0.518-7.275-2.558-10.829c-1.811-2.083-6.567-3.64-6.567-3.64c-1.396,1.26-3.171,2.161-5.092,2.82&#10;&#9;&#9;&#9;&#9;&#9;&#9;&#9;&#9;c-0.225,0.076-0.45,0.151-0.673,0.22l-3.395,0.841C434.428,354.138,432.948,354.354,431.58,354.53z"/>
                <path style="opacity:0.6;fill:#CA7E86;" d="M435.918,353.848c0,0,4.46,3.175,4.284,8.396c0,0,2.003-4.253-0.597-6.998&#10;&#9;&#9;&#9;&#9;&#9;&#9;&#9;&#9;c-0.633-0.668-0.231-1.617,0.381-2.46c-0.225,0.076-0.45,0.151-0.673,0.22L435.918,353.848z"/>
                <g>
                  <path style="fill:#F2C2B6;" d="M432.102,363.196c0.348,0.078,1.792-4.34,2.152-4.473c0.986-0.369,3.124-1.905,2.755-2.89&#10;&#9;&#9;&#9;&#9;&#9;&#9;&#9;&#9;&#9;l-2.994-5.609c-0.287-0.538-0.073-1.204,0.468-1.485c1.53-0.795,2.402-1.984,2.815-3.448&#10;&#9;&#9;&#9;&#9;&#9;&#9;&#9;&#9;&#9;c0.255-0.905-0.668-1.704-1.52-1.305c-1.782,0.834-4.369,1.852-5.7,2.365c-0.499,0.192-0.786,0.716-0.681,1.241&#10;&#9;&#9;&#9;&#9;&#9;&#9;&#9;&#9;&#9;C429.397,347.59,428.63,363.068,432.102,363.196z"/>
                </g>
              </g>
            </g>
            <path style="fill:#DB6024;" d="M408.853,417.173v0.096c-0.433,10.307-7.43,19.171-7.43,19.171l0.01,12.983&#10;&#9;&#9;&#9;&#9;&#9;&#9;c0.144,4.629,0.549,16.235,1.386,29.728l-12.193-0.029l-56.809-0.125c0.192-1.078,0.375-2.175,0.568-3.291&#10;&#9;&#9;&#9;&#9;&#9;&#9;c1.02-5.976,1.751-27.823,1.751-27.823s0-0.01,0-0.019c0.308-4.841-0.327-10.74-0.327-10.74s-7.247-6.968-7.122-18.67&#10;&#9;&#9;&#9;&#9;&#9;&#9;c0.048-4.6,1.241-9.932,4.465-15.86c0-0.058-0.231-1.963-0.568-4.745c-0.962-7.872-2.801-22.808-2.801-22.808&#10;&#9;&#9;&#9;&#9;&#9;&#9;s9.681-10.317,24.791-1.954c0.818,0.443,1.646,0.943,2.493,1.511c0.346,0.221,0.693,0.462,1.039,0.712c0,0,0.144,0,0.404,0&#10;&#9;&#9;&#9;&#9;&#9;&#9;h0.01c1.675,0.019,8.074,0.077,13.127,0.067c3.455-0.01,6.275-0.048,6.544-0.154c0.375-0.193,0.741-0.366,1.116-0.548h0.019&#10;&#9;&#9;&#9;&#9;&#9;&#9;c0.712-0.327,1.424-0.635,2.127-0.914c6.621-2.618,12.453-2.897,17.005-2.319c0.077,0.01,0.144,0.019,0.212,0.029h0.01&#10;&#9;&#9;&#9;&#9;&#9;&#9;c6.294,0.847,10.105,3.301,10.105,3.301s-0.019,0.135-0.048,0.395c-0.26,2.377-1.665,14.926-2.695,22.751&#10;&#9;&#9;&#9;&#9;&#9;&#9;c-0.452,3.416-0.837,5.928-1.02,6.304C408.054,408.434,409.016,412.919,408.853,417.173z"/>
            <path style="opacity:0.5;fill:#DB6024;" d="M408.853,417.173v0.096c-0.433,10.307-7.43,19.171-7.43,19.171l0.01,12.983&#10;&#9;&#9;&#9;&#9;&#9;&#9;c0.144,4.629,0.549,16.235,1.386,29.728l-12.193-0.029c4.687-21.836,5.216-40.391,4.167-40.141&#10;&#9;&#9;&#9;&#9;&#9;&#9;c-4.109,0.472-4.003,1.347-14.975-0.25c17.515-3.291,23.386-13.897,24.82-27.293c0.01-0.019,0.01-0.048,0.01-0.077&#10;&#9;&#9;&#9;&#9;&#9;&#9;c0.25-2.3,0.356-4.697,0.375-7.141C408.054,408.434,409.016,412.919,408.853,417.173z"/>
            <path style="fill:#F2C2B6;" d="M354.751,374.591l26.52,0.09c0,0-2.414,30.502-13.516,30.864&#10;&#9;&#9;&#9;&#9;&#9;&#9;C356.652,405.907,353.879,375.257,354.751,374.591z"/>
            <g>
              <path style="fill:#F2C2B6;" d="M381.271,356.055l0.032,1.247c0,0,0.132,14.133,0.168,18.066&#10;&#9;&#9;&#9;&#9;&#9;&#9;&#9;c0.037,3.933-6.622,11.798-13.411,11.861c-6.788,0.063-13.029-6.432-13.314-9.697c-0.285-3.265-0.132-5.848-0.132-5.848&#10;&#9;&#9;&#9;&#9;&#9;&#9;&#9;l-0.248-11.115l-0.056-2.546l0.516,0.096l12.641,2.389l13.107-2.729L381.271,356.055z"/>
              <path style="opacity:0.6;fill:#CA7E86;" d="M381.452,363.91c-4.164,12.128-18.012,17.74-26.882,8.327l-0.204-11.668l0.46-2.45&#10;&#9;&#9;&#9;&#9;&#9;&#9;&#9;l12.641,2.389l13.769-2.736L381.452,363.91z"/>
            </g>
            <g>
              <g>
                <path style="fill:#434244;" d="M386.088,298.922c0,0,28.077-4.524,20.112,54.67c-2.531,18.809-23.171,18.464-23.171,18.464&#10;&#9;&#9;&#9;&#9;&#9;&#9;&#9;&#9;l9.465-29.506c0,0-1.974-7.977-3.258-15.085c-0.633-6.555-0.724-14.844-0.724-14.844L386.088,298.922z"/>
                <path style="fill:#F2C2B6;" d="M391.368,342.016c0,0,5.89-10.851,12.986-7.417c7.096,3.434-2.897,21.429-13.821,16.308&#10;&#9;&#9;&#9;&#9;&#9;&#9;&#9;&#9;L391.368,342.016z"/>
                <path style="fill:#CA7E86;" d="M401.567,339.577c-5.249-0.564-8.704,3.878-8.849,4.068c-0.148,0.194-0.111,0.47,0.083,0.617&#10;&#9;&#9;&#9;&#9;&#9;&#9;&#9;&#9;c0.068,0.052,0.146,0.081,0.226,0.089c0.146,0.014,0.296-0.046,0.392-0.172c0.021-0.026,1.312-1.684,3.436-2.793&#10;&#9;&#9;&#9;&#9;&#9;&#9;&#9;&#9;c1.7,1.354,0.483,4.331,0.469,4.362c-0.094,0.224,0.009,0.483,0.233,0.578c0.043,0.019,0.088,0.03,0.132,0.034&#10;&#9;&#9;&#9;&#9;&#9;&#9;&#9;&#9;c0.186,0.017,0.369-0.085,0.446-0.265c0.063-0.146,1.343-3.277-0.411-5.103c1.059-0.422,2.272-0.679,3.611-0.553&#10;&#9;&#9;&#9;&#9;&#9;&#9;&#9;&#9;c0.044,0.004,0.09,0.009,0.135,0.014c0.212,0.058,0.46-0.147,0.487-0.389C401.983,339.822,401.809,339.604,401.567,339.577z"/>
              </g>
              <g>
                <path style="fill:#F2C2B6;" d="M345.465,337.708c0,0-3.768-11.758-11.379-9.704c-7.611,2.054-1.141,21.594,10.545,18.594&#10;&#9;&#9;&#9;&#9;&#9;&#9;&#9;&#9;L345.465,337.708z"/>
                <path style="fill:#CA7E86;" d="M335.898,333.414c5.263,0.422,7.831,5.429,7.938,5.644c0.109,0.218,0.021,0.482-0.196,0.591&#10;&#9;&#9;&#9;&#9;&#9;&#9;&#9;&#9;c-0.076,0.039-0.159,0.053-0.239,0.045c-0.146-0.014-0.282-0.1-0.353-0.242c-0.015-0.03-0.976-1.899-2.856-3.383&#10;&#9;&#9;&#9;&#9;&#9;&#9;&#9;&#9;c-1.922,1.014-1.28,4.165-1.272,4.199c0.051,0.237-0.099,0.472-0.336,0.525c-0.046,0.01-0.092,0.013-0.136,0.009&#10;&#9;&#9;&#9;&#9;&#9;&#9;&#9;&#9;c-0.186-0.018-0.347-0.152-0.389-0.344c-0.034-0.155-0.71-3.47,1.353-4.937c-0.962-0.612-2.107-1.09-3.445-1.215&#10;&#9;&#9;&#9;&#9;&#9;&#9;&#9;&#9;c-0.045-0.004-0.09-0.008-0.136-0.011c-0.219,0.017-0.425-0.23-0.406-0.473C335.444,333.578,335.655,333.395,335.898,333.414&#10;&#9;&#9;&#9;&#9;&#9;&#9;&#9;&#9;z"/>
              </g>
              <ellipse transform="matrix(0.0934 -0.9956 0.9956 0.0934 1.3672 670.611)" style="fill:#F2C2B6;" cx="368.93" cy="334.555" rx="37.584" ry="25.355"/>
              <g>
                <path style="fill:#B34A58;" d="M373.581,361.955c-0.094,0-0.181-0.007-0.268-0.015c-3.085-0.224-3.121-2.491-6.444-2.802&#10;&#9;&#9;&#9;&#9;&#9;&#9;&#9;&#9;c-3.309-0.311-3.787,1.723-6.821,1.216c-0.087-0.014-0.181-0.029-0.275-0.051c-3.287-0.688-2.542-5.72,0.565-8.421&#10;&#9;&#9;&#9;&#9;&#9;&#9;&#9;&#9;c0.326-0.282,0.652-0.536,0.97-0.76c2.433-1.731,4.786-1.991,6.792-1.752c1.999,0.246,4.2,1.043,6.147,3.295&#10;&#9;&#9;&#9;&#9;&#9;&#9;&#9;&#9;c0.268,0.297,0.521,0.623,0.768,0.97C377.389,356.995,376.933,362.064,373.581,361.955z"/>
                <path style="fill:#CA6B75;" d="M373.313,361.941c-3.085-0.224-3.121-2.491-6.444-2.802c-3.309-0.311-3.787,1.723-6.821,1.216&#10;&#9;&#9;&#9;&#9;&#9;&#9;&#9;&#9;c0.579-1.289,2.433-4.294,6.922-3.867C371.148,356.887,372.755,360.203,373.313,361.941z"/>
                <path style="fill:#FFFFFF;" d="M374.247,352.665c-0.036,0.022-3.688,0.063-6.704-0.25c-3.198-0.332-6.306-1.297-6.236-1.293&#10;&#9;&#9;&#9;&#9;&#9;&#9;&#9;&#9;c2.433-1.731,4.786-1.991,6.792-1.752C370.098,349.617,372.299,350.413,374.247,352.665z"/>
              </g>
              <g>
                <g>
                  <path style="fill:#434244;" d="M351.801,323.62c-0.121,0.069,2.328,3.182,5.816,2.608c2.214-0.363,4.027-1.165,6.004-3.12&#10;&#9;&#9;&#9;&#9;&#9;&#9;&#9;&#9;&#9;c0.507-0.502,0.395-1.615-0.076-1.948c-0.472-0.334-1.532-0.366-2.036,0.136c-1.462,1.448-2.974,2.308-4.491,2.558&#10;&#9;&#9;&#9;&#9;&#9;&#9;&#9;&#9;&#9;C354.607,324.25,352.282,323.347,351.801,323.62z"/>
                </g>
              </g>
              <g>
                <g>
                  <path style="fill:#434244;" d="M386.879,324.706c0.121,0.069-2.328,3.181-5.816,2.608c-2.214-0.363-4.027-1.165-6.005-3.12&#10;&#9;&#9;&#9;&#9;&#9;&#9;&#9;&#9;&#9;c-0.507-0.502-0.395-1.615,0.076-1.948c0.472-0.334,1.532-0.366,2.036,0.136c1.462,1.448,2.974,2.309,4.491,2.558&#10;&#9;&#9;&#9;&#9;&#9;&#9;&#9;&#9;&#9;C384.072,325.336,386.397,324.433,386.879,324.706z"/>
                </g>
              </g>
              <path style="fill:#434244;" d="M392.856,316.966c0,0-6.705-8.589-17.378-11.223c-11.079-2.735-25.961,2.761-29.358,22.538&#10;&#9;&#9;&#9;&#9;&#9;&#9;&#9;c0,0-4.362,22.472,2.008,40.629c0,0-20.133-6.754-20.374-26.551c-0.241-19.797,10.802-36.947,20.255-44.754&#10;&#9;&#9;&#9;&#9;&#9;&#9;&#9;c13.23-11.654,38.779-9.391,41.831,2.828L392.856,316.966z"/>
              <g>
                <g>
                  <path style="fill:#CA7E86;" d="M349.409,337.461c-0.084,0.35-1.012,0.427-2.074,0.173c-1.062-0.254-1.855-0.744-1.771-1.094&#10;&#9;&#9;&#9;&#9;&#9;&#9;&#9;&#9;&#9;c0.084-0.35,1.012-0.427,2.074-0.173C348.7,336.621,349.493,337.111,349.409,337.461z"/>
                  <path style="fill:#CA7E86;" d="M349.395,339.605c-0.017-0.359-0.915-0.608-2.006-0.556&#10;&#9;&#9;&#9;&#9;&#9;&#9;&#9;&#9;&#9;c-1.091,0.052-1.961,0.386-1.944,0.745c0.017,0.359,0.915,0.608,2.006,0.556&#10;&#9;&#9;&#9;&#9;&#9;&#9;&#9;&#9;&#9;C348.542,340.298,349.412,339.964,349.395,339.605z"/>
                </g>
              </g>
              <g>
                <g>
                  <path style="fill:#CA7E86;" d="M386.543,340.538c0.084,0.35,1.012,0.427,2.074,0.173c1.062-0.254,1.855-0.744,1.771-1.094&#10;&#9;&#9;&#9;&#9;&#9;&#9;&#9;&#9;&#9;c-0.084-0.35-1.013-0.427-2.074-0.173C387.252,339.698,386.459,340.188,386.543,340.538z"/>
                  <path style="fill:#CA7E86;" d="M386.557,342.682c0.017-0.359,0.915-0.608,2.006-0.556c1.091,0.052,1.961,0.386,1.944,0.745&#10;&#9;&#9;&#9;&#9;&#9;&#9;&#9;&#9;&#9;c-0.017,0.359-0.915,0.608-2.006,0.556C387.41,343.375,386.54,343.041,386.557,342.682z"/>
                </g>
              </g>
              <g>
                <g>
                  <path style="fill:#CA7E86;" d="M370.304,346.046c-0.899,0.807-1.76,1.139-2.301,0.93c-0.653-0.242-1.134-1.433-0.53-4.051&#10;&#9;&#9;&#9;&#9;&#9;&#9;&#9;&#9;&#9;c0.007-0.031,0.015-0.059,0.022-0.09c-0.309,0.026-0.618,0.059-0.924,0.099c-0.798,3.707,0.512,4.641,1.125,4.868&#10;&#9;&#9;&#9;&#9;&#9;&#9;&#9;&#9;&#9;c0.051,0.018,0.102,0.035,0.153,0.049c0.872,0.239,1.921-0.162,2.936-1.038&#10;&#9;&#9;&#9;&#9;&#9;&#9;&#9;&#9;&#9;C370.624,346.558,370.464,346.302,370.304,346.046z"/>
                </g>
              </g>
              <path style="fill:#434244;" d="M359.384,328.595l-4.277-0.273c0,0,0.543,1.122,3.027,1.585&#10;&#9;&#9;&#9;&#9;&#9;&#9;&#9;c-0.39,0.875-0.707,2.114-0.857,3.508c-0.294,2.744,0.171,5.034,1.04,5.116c0.869,0.082,1.811-2.077,2.106-4.82&#10;&#9;&#9;&#9;&#9;&#9;&#9;&#9;C360.718,330.966,360.253,328.676,359.384,328.595z"/>
              <path style="fill:#434244;" d="M383.806,331.015l-4.249-0.527c-0.869-0.082-1.812,2.076-2.107,4.82&#10;&#9;&#9;&#9;&#9;&#9;&#9;&#9;c-0.294,2.744,0.171,5.034,1.04,5.116c0.869,0.082,1.812-2.077,2.107-4.82c0.15-1.394,0.102-2.667-0.095-3.597&#10;&#9;&#9;&#9;&#9;&#9;&#9;&#9;C383.036,332.014,383.806,331.015,383.806,331.015z"/>
              <path style="opacity:0.5;fill:#CA5B67;" d="M386.271,344.817c-6.996,0.427-12.875-4.078-13.508-9.599&#10;&#9;&#9;&#9;&#9;&#9;&#9;&#9;c-0.362-3.62-2.851-3.855-3.591-3.891c-0.734-0.098-3.559-0.182-4.231,3.184c-2.134,6.5-10.493,8.102-15.242,7.188&#10;&#9;&#9;&#9;&#9;&#9;&#9;&#9;c-5.612-0.905-2.161,7.303,2.608,7.729c6.758,0.603,13.944-8.715,15.99-8.568c2.046,0.147,7.422,10.499,13.878,11.465&#10;&#9;&#9;&#9;&#9;&#9;&#9;&#9;C386.912,353.033,391.646,344.22,386.271,344.817z"/>
              <path style="opacity:0.5;fill:#CA5B67;" d="M361.756,319.062c-2.419,0.046-3.376-1.732-2.522-3.865&#10;&#9;&#9;&#9;&#9;&#9;&#9;&#9;c1.189-2.968,5.754-5.576,12.199-4.885c6.295,0.674,9.807,3.818,10.381,6.556c0.468,2.234,0.071,3.64-3.283,3.393&#10;&#9;&#9;&#9;&#9;&#9;&#9;&#9;c-3.354-0.248-3.445-2.42-8.151-3.054C365.796,316.59,364.176,319.016,361.756,319.062z"/>
              <path style="fill:#434244;" d="M345.149,332.409c8.244-6.332,1.727-18.189,8.003-23.167c0.601-0.595,5.54-1.945,6.232-2.424&#10;&#9;&#9;&#9;&#9;&#9;&#9;&#9;c0.704-0.463,1.428-0.883,2.186-1.219c1.528-0.648,3.135-1.024,4.737-1.064c-2.935,1.274-5.429,3.041-7.159,5.401&#10;&#9;&#9;&#9;&#9;&#9;&#9;&#9;c-1.762,2.328-2.859,5.093-3.647,7.982c-0.402,1.445-0.709,2.933-0.996,4.441l-0.212,1.142&#10;&#9;&#9;&#9;&#9;&#9;&#9;&#9;c-0.081,0.416-0.16,0.829-0.278,1.24c-0.215,0.822-0.493,1.635-0.871,2.412c-0.734,1.557-1.867,2.966-3.284,3.932&#10;&#9;&#9;&#9;&#9;&#9;&#9;&#9;C348.434,332.023,346.76,332.562,345.149,332.409z"/>
              <path style="fill:#434244;" d="M390.865,313.043c-2.776,11.465-1.267,17.559,1.569,28.42l3.5-6.879&#10;&#9;&#9;&#9;&#9;&#9;&#9;&#9;C395.933,334.585,401.605,318.836,390.865,313.043z"/>
            </g>
          </g>
        </g>
        <g>
          <g>
            <g>
              <path style="fill:#FFFFFF;" d="M324.033,300.25c-1.108-1.248-4.884-4.73-7.591-4.347c-5.826,0.822-8.87-3.806-9.666-6.369&#10;&#9;&#9;&#9;&#9;&#9;&#9;&#9;l3.456-1.076l-1.728,0.538l1.726-0.548c0.147,0.458,1.572,4.447,5.704,3.87c5.136-0.733,10.246,4.892,10.812,5.535&#10;&#9;&#9;&#9;&#9;&#9;&#9;&#9;L324.033,300.25z"/>
            </g>
            <g>
              <path style="fill:#FFFFFF;" d="M319.244,311.276c-1.36-0.967-5.82-3.511-8.373-2.53c-5.486,2.107-9.496-1.716-10.85-4.035&#10;&#9;&#9;&#9;&#9;&#9;&#9;&#9;l3.127-1.824l-1.564,0.912l1.558-0.921c0.247,0.413,2.528,3.988,6.428,2.489c4.823-1.855,11.082,2.466,11.781,2.965&#10;&#9;&#9;&#9;&#9;&#9;&#9;&#9;L319.244,311.276z"/>
            </g>
            <g>
              <path style="fill:#FFFFFF;" d="M305.32,325.488c-2.666,0-5.009-1.292-6.24-2.368l2.375-2.733&#10;&#9;&#9;&#9;&#9;&#9;&#9;&#9;c0.367,0.313,3.67,2.977,6.887,0.312c3.982-3.297,11.291-1.194,12.11-0.943l-1.059,3.462&#10;&#9;&#9;&#9;&#9;&#9;&#9;&#9;c-1.596-0.485-6.636-1.473-8.742,0.269C308.88,324.955,307.033,325.488,305.32,325.488z"/>
            </g>
          </g>
        </g>
        <g>
          <g>
            <g>
              <path style="fill:#FFFFFF;" d="M414.519,302.326l-2.712-2.398c0.567-0.643,5.688-6.272,10.812-5.535&#10;&#9;&#9;&#9;&#9;&#9;&#9;&#9;c4.247,0.606,5.644-3.678,5.702-3.861l3.456,1.076c-0.797,2.563-3.832,7.196-9.666,6.369&#10;&#9;&#9;&#9;&#9;&#9;&#9;&#9;C419.406,297.592,415.626,301.076,414.519,302.326z"/>
            </g>
            <g>
              <path style="fill:#FFFFFF;" d="M419.309,313.352l-2.107-2.945c0.697-0.499,6.952-4.826,11.78-2.965&#10;&#9;&#9;&#9;&#9;&#9;&#9;&#9;c4.012,1.544,6.326-2.315,6.422-2.48l3.127,1.824c-1.353,2.319-5.363,6.145-10.85,4.035&#10;&#9;&#9;&#9;&#9;&#9;&#9;&#9;C425.117,309.834,420.664,312.38,419.309,313.352z"/>
            </g>
            <g>
              <path style="fill:#FFFFFF;" d="M433.233,327.564c-1.713,0-3.56-0.533-5.332-2c-2.115-1.755-7.145-0.757-8.742-0.27&#10;&#9;&#9;&#9;&#9;&#9;&#9;&#9;l-1.059-3.463c0.821-0.251,8.125-2.355,12.11,0.944c3.219,2.664,6.521,0,6.887-0.313l2.375,2.733&#10;&#9;&#9;&#9;&#9;&#9;&#9;&#9;C438.242,326.272,435.899,327.564,433.233,327.564z"/>
            </g>
          </g>
        </g>
      </g>
      <g>
        <path style="opacity:0.9;fill:#EAAC21;" d="M395.59,251.2c1.67,0,13.18,2.79,13.18,2.79s-10.21-7.24-8.36-7.61&#10;&#9;&#9;&#9;&#9;c1.86-0.38,12.25-0.38,12.25-0.38s-10.02-5.93-8.91-6.31c0.68-0.23,5.22-1.07,8.66-1.69c-3.25-2.32-7.01-4.42-11.45-6.27&#10;&#9;&#9;&#9;&#9;c-0.22-0.09-0.44-0.18-0.67-0.27c-22.42-9.06-42.24-9.51-58.66-3.78c-2.27,0.79-4.47,1.7-6.61,2.72c1.45,0.74,2.47,1.6,2.46,2.61&#10;&#9;&#9;&#9;&#9;c-0.01,1.42-10.95,4.27-10.95,4.27s11.51,2.04,12.62,2.41c1.12,0.38-8.91,6.31-8.91,6.31s10.4,0,12.26,0.38&#10;&#9;&#9;&#9;&#9;c1.85,0.37-8.36,7.61-8.36,7.61s11.51-2.79,13.18-2.79c1.67,0-6.12,11.14-6.12,11.14s10.58-6.5,12.06-6.87&#10;&#9;&#9;&#9;&#9;c1.49-0.37-3.15,10.77-3.15,10.77s7.61-8.17,8.35-8.73c0.74-0.55-1.67,15.41-1.67,15.41s7.61-11.69,9.09-12.99&#10;&#9;&#9;&#9;&#9;c1.41-1.23,5.02,12.86,5.4,14.34v0.22c0,0,0.01-0.05,0.03-0.11v-0.02c0.4-1.46,4.31-15.67,5.71-14.43&#10;&#9;&#9;&#9;&#9;c1.49,1.3,9.1,12.99,9.1,12.99s-2.41-15.96-1.67-15.41c0.74,0.56,8.35,8.73,8.35,8.73s-4.64-11.14-3.15-10.77&#10;&#9;&#9;&#9;&#9;c1.48,0.37,12.06,6.87,12.06,6.87S393.92,251.2,395.59,251.2z"/>
        <path style="fill:#FFCC4A;" d="M400.96,231.73c-2.14,14.38-14.54,25.4-29.51,25.4c-16.34,0-29.62-13.14-29.82-29.45&#10;&#9;&#9;&#9;&#9;c16.42-5.73,36.24-5.28,58.66,3.78C400.52,231.55,400.74,231.64,400.96,231.73z"/>
      </g>
    </g>
  </g>
</svg>